<mxfile host="app.diagrams.net" agent="Mozilla/5.0 (X11; Linux x86_64) AppleWebKit/537.36 (KHTML, like Gecko) Chrome/133.0.0.0 Safari/537.36" version="26.0.11">
  <diagram name="PÃ¡gina-1" id="w2jTmAfP5KxmHe8JhKmv">
    <mxGraphModel dx="862" dy="1382" grid="1" gridSize="10" guides="1" tooltips="1" connect="1" arrows="1" fold="1" page="1" pageScale="1" pageWidth="827" pageHeight="1169" background="light-dark(#FFFFFF,#FFFFFF)" math="0" shadow="0">
      <root>
        <mxCell id="0" />
        <mxCell id="1" parent="0" />
        <mxCell id="MeG4YokCds6r6bCYYfKP-53" value="user_roles" style="shape=table;startSize=30;container=1;collapsible=1;childLayout=tableLayout;fixedRows=1;rowLines=0;fontStyle=1;align=center;resizeLast=1;html=1;rounded=1;strokeColor=#BAC8D3;verticalAlign=middle;fontFamily=Helvetica;fontSize=12;fontColor=#EEEEEE;labelBackgroundColor=none;fillColor=#09555B;" parent="1" vertex="1">
          <mxGeometry x="1730" y="45" width="180" height="120" as="geometry" />
        </mxCell>
        <mxCell id="MeG4YokCds6r6bCYYfKP-54" value="" style="shape=tableRow;horizontal=0;startSize=0;swimlaneHead=0;swimlaneBody=0;fillColor=none;collapsible=0;dropTarget=0;points=[[0,0.5],[1,0.5]];portConstraint=eastwest;top=0;left=0;right=0;bottom=1;rounded=1;strokeColor=#BAC8D3;align=center;verticalAlign=middle;fontFamily=Helvetica;fontSize=12;fontColor=#EEEEEE;fontStyle=1;labelBackgroundColor=none;" parent="MeG4YokCds6r6bCYYfKP-53" vertex="1">
          <mxGeometry y="30" width="180" height="30" as="geometry" />
        </mxCell>
        <mxCell id="MeG4YokCds6r6bCYYfKP-55" value="PK" style="shape=partialRectangle;connectable=0;fillColor=none;top=0;left=0;bottom=0;right=0;fontStyle=1;overflow=hidden;whiteSpace=wrap;html=1;rounded=1;strokeColor=#BAC8D3;align=center;verticalAlign=middle;fontFamily=Helvetica;fontSize=12;fontColor=#EEEEEE;labelBackgroundColor=none;" parent="MeG4YokCds6r6bCYYfKP-54" vertex="1">
          <mxGeometry width="50" height="30" as="geometry">
            <mxRectangle width="50" height="30" as="alternateBounds" />
          </mxGeometry>
        </mxCell>
        <mxCell id="MeG4YokCds6r6bCYYfKP-56" value="UniqueID" style="shape=partialRectangle;connectable=0;fillColor=none;top=0;left=0;bottom=0;right=0;align=left;spacingLeft=6;fontStyle=5;overflow=hidden;whiteSpace=wrap;html=1;rounded=1;strokeColor=#BAC8D3;verticalAlign=middle;fontFamily=Helvetica;fontSize=12;fontColor=#EEEEEE;labelBackgroundColor=none;" parent="MeG4YokCds6r6bCYYfKP-54" vertex="1">
          <mxGeometry x="50" width="130" height="30" as="geometry">
            <mxRectangle width="130" height="30" as="alternateBounds" />
          </mxGeometry>
        </mxCell>
        <mxCell id="MeG4YokCds6r6bCYYfKP-57" value="" style="shape=tableRow;horizontal=0;startSize=0;swimlaneHead=0;swimlaneBody=0;fillColor=none;collapsible=0;dropTarget=0;points=[[0,0.5],[1,0.5]];portConstraint=eastwest;top=0;left=0;right=0;bottom=0;rounded=1;strokeColor=#BAC8D3;align=center;verticalAlign=middle;fontFamily=Helvetica;fontSize=12;fontColor=#EEEEEE;fontStyle=1;labelBackgroundColor=none;" parent="MeG4YokCds6r6bCYYfKP-53" vertex="1">
          <mxGeometry y="60" width="180" height="30" as="geometry" />
        </mxCell>
        <mxCell id="MeG4YokCds6r6bCYYfKP-58" value="uuid" style="shape=partialRectangle;connectable=0;fillColor=none;top=0;left=0;bottom=0;right=0;editable=1;overflow=hidden;whiteSpace=wrap;html=1;rounded=1;strokeColor=#BAC8D3;align=center;verticalAlign=middle;fontFamily=Helvetica;fontSize=12;fontColor=#EEEEEE;fontStyle=1;labelBackgroundColor=none;" parent="MeG4YokCds6r6bCYYfKP-57" vertex="1">
          <mxGeometry width="50" height="30" as="geometry">
            <mxRectangle width="50" height="30" as="alternateBounds" />
          </mxGeometry>
        </mxCell>
        <mxCell id="MeG4YokCds6r6bCYYfKP-59" value="user_id" style="shape=partialRectangle;connectable=0;fillColor=none;top=0;left=0;bottom=0;right=0;align=left;spacingLeft=6;overflow=hidden;whiteSpace=wrap;html=1;rounded=1;strokeColor=#BAC8D3;verticalAlign=middle;fontFamily=Helvetica;fontSize=12;fontColor=#EEEEEE;fontStyle=1;labelBackgroundColor=none;" parent="MeG4YokCds6r6bCYYfKP-57" vertex="1">
          <mxGeometry x="50" width="130" height="30" as="geometry">
            <mxRectangle width="130" height="30" as="alternateBounds" />
          </mxGeometry>
        </mxCell>
        <mxCell id="MeG4YokCds6r6bCYYfKP-60" value="" style="shape=tableRow;horizontal=0;startSize=0;swimlaneHead=0;swimlaneBody=0;fillColor=none;collapsible=0;dropTarget=0;points=[[0,0.5],[1,0.5]];portConstraint=eastwest;top=0;left=0;right=0;bottom=0;rounded=1;strokeColor=#BAC8D3;align=center;verticalAlign=middle;fontFamily=Helvetica;fontSize=12;fontColor=#EEEEEE;fontStyle=1;labelBackgroundColor=none;" parent="MeG4YokCds6r6bCYYfKP-53" vertex="1">
          <mxGeometry y="90" width="180" height="30" as="geometry" />
        </mxCell>
        <mxCell id="MeG4YokCds6r6bCYYfKP-61" value="uuid" style="shape=partialRectangle;connectable=0;fillColor=none;top=0;left=0;bottom=0;right=0;editable=1;overflow=hidden;whiteSpace=wrap;html=1;rounded=1;strokeColor=#BAC8D3;align=center;verticalAlign=middle;fontFamily=Helvetica;fontSize=12;fontColor=#EEEEEE;fontStyle=1;labelBackgroundColor=none;" parent="MeG4YokCds6r6bCYYfKP-60" vertex="1">
          <mxGeometry width="50" height="30" as="geometry">
            <mxRectangle width="50" height="30" as="alternateBounds" />
          </mxGeometry>
        </mxCell>
        <mxCell id="MeG4YokCds6r6bCYYfKP-62" value="roles_id" style="shape=partialRectangle;connectable=0;fillColor=none;top=0;left=0;bottom=0;right=0;align=left;spacingLeft=6;overflow=hidden;whiteSpace=wrap;html=1;rounded=1;strokeColor=#BAC8D3;verticalAlign=middle;fontFamily=Helvetica;fontSize=12;fontColor=#EEEEEE;fontStyle=1;labelBackgroundColor=none;" parent="MeG4YokCds6r6bCYYfKP-60" vertex="1">
          <mxGeometry x="50" width="130" height="30" as="geometry">
            <mxRectangle width="130" height="30" as="alternateBounds" />
          </mxGeometry>
        </mxCell>
        <mxCell id="LPFi_fAzkbVzN_uqESW--231" value="users" style="shape=table;startSize=30;container=1;collapsible=1;childLayout=tableLayout;fixedRows=1;rowLines=0;fontStyle=1;align=center;resizeLast=1;html=1;rounded=1;shadow=1;fillStyle=auto;strokeColor=#BAC8D3;verticalAlign=middle;fontFamily=Helvetica;fontSize=12;fontColor=#EEEEEE;labelBackgroundColor=none;fillColor=#09555B;" vertex="1" parent="1">
          <mxGeometry x="1980" y="220" width="200" height="330" as="geometry" />
        </mxCell>
        <mxCell id="LPFi_fAzkbVzN_uqESW--232" value="" style="shape=tableRow;horizontal=0;startSize=0;swimlaneHead=0;swimlaneBody=0;fillColor=none;collapsible=0;dropTarget=0;points=[[0,0.5],[1,0.5]];portConstraint=eastwest;top=0;left=0;right=0;bottom=1;rounded=1;shadow=1;fillStyle=auto;strokeColor=#BAC8D3;align=center;verticalAlign=middle;fontFamily=Helvetica;fontSize=12;fontColor=#EEEEEE;fontStyle=1;labelBackgroundColor=none;" vertex="1" parent="LPFi_fAzkbVzN_uqESW--231">
          <mxGeometry y="30" width="200" height="30" as="geometry" />
        </mxCell>
        <mxCell id="LPFi_fAzkbVzN_uqESW--233" value="PK" style="shape=partialRectangle;connectable=0;fillColor=none;top=0;left=0;bottom=0;right=0;fontStyle=1;overflow=hidden;whiteSpace=wrap;html=1;rounded=1;shadow=1;fillStyle=auto;strokeColor=#BAC8D3;align=center;verticalAlign=middle;fontFamily=Helvetica;fontSize=12;fontColor=#EEEEEE;labelBackgroundColor=none;" vertex="1" parent="LPFi_fAzkbVzN_uqESW--232">
          <mxGeometry width="50" height="30" as="geometry">
            <mxRectangle width="50" height="30" as="alternateBounds" />
          </mxGeometry>
        </mxCell>
        <mxCell id="LPFi_fAzkbVzN_uqESW--234" value="UniqueID" style="shape=partialRectangle;connectable=0;fillColor=none;top=0;left=0;bottom=0;right=0;align=left;spacingLeft=6;fontStyle=5;overflow=hidden;whiteSpace=wrap;html=1;rounded=1;shadow=1;fillStyle=auto;strokeColor=#BAC8D3;verticalAlign=middle;fontFamily=Helvetica;fontSize=12;fontColor=#EEEEEE;labelBackgroundColor=none;" vertex="1" parent="LPFi_fAzkbVzN_uqESW--232">
          <mxGeometry x="50" width="150" height="30" as="geometry">
            <mxRectangle width="150" height="30" as="alternateBounds" />
          </mxGeometry>
        </mxCell>
        <mxCell id="LPFi_fAzkbVzN_uqESW--235" value="" style="shape=tableRow;horizontal=0;startSize=0;swimlaneHead=0;swimlaneBody=0;fillColor=none;collapsible=0;dropTarget=0;points=[[0,0.5],[1,0.5]];portConstraint=eastwest;top=0;left=0;right=0;bottom=0;rounded=1;shadow=1;fillStyle=auto;strokeColor=#BAC8D3;align=center;verticalAlign=middle;fontFamily=Helvetica;fontSize=12;fontColor=default;fontStyle=0;labelBackgroundColor=none;" vertex="1" parent="LPFi_fAzkbVzN_uqESW--231">
          <mxGeometry y="60" width="200" height="30" as="geometry" />
        </mxCell>
        <mxCell id="LPFi_fAzkbVzN_uqESW--236" value="char" style="shape=partialRectangle;connectable=0;fillColor=none;top=0;left=0;bottom=0;right=0;editable=1;overflow=hidden;whiteSpace=wrap;html=1;rounded=1;shadow=1;fillStyle=auto;strokeColor=#BAC8D3;align=center;verticalAlign=middle;fontFamily=Helvetica;fontSize=12;fontColor=#EEEEEE;fontStyle=0;labelBackgroundColor=none;" vertex="1" parent="LPFi_fAzkbVzN_uqESW--235">
          <mxGeometry width="50" height="30" as="geometry">
            <mxRectangle width="50" height="30" as="alternateBounds" />
          </mxGeometry>
        </mxCell>
        <mxCell id="LPFi_fAzkbVzN_uqESW--237" value="cpf" style="shape=partialRectangle;connectable=0;fillColor=none;top=0;left=0;bottom=0;right=0;align=left;spacingLeft=6;overflow=hidden;whiteSpace=wrap;html=1;rounded=1;shadow=1;fillStyle=auto;strokeColor=#BAC8D3;verticalAlign=middle;fontFamily=Helvetica;fontSize=12;fontColor=#EEEEEE;fontStyle=0;labelBackgroundColor=none;" vertex="1" parent="LPFi_fAzkbVzN_uqESW--235">
          <mxGeometry x="50" width="150" height="30" as="geometry">
            <mxRectangle width="150" height="30" as="alternateBounds" />
          </mxGeometry>
        </mxCell>
        <mxCell id="LPFi_fAzkbVzN_uqESW--238" value="" style="shape=tableRow;horizontal=0;startSize=0;swimlaneHead=0;swimlaneBody=0;fillColor=none;collapsible=0;dropTarget=0;points=[[0,0.5],[1,0.5]];portConstraint=eastwest;top=0;left=0;right=0;bottom=0;rounded=1;shadow=1;fillStyle=auto;strokeColor=#BAC8D3;align=center;verticalAlign=middle;fontFamily=Helvetica;fontSize=12;fontColor=#EEEEEE;fontStyle=0;labelBackgroundColor=none;" vertex="1" parent="LPFi_fAzkbVzN_uqESW--231">
          <mxGeometry y="90" width="200" height="30" as="geometry" />
        </mxCell>
        <mxCell id="LPFi_fAzkbVzN_uqESW--239" value="varchar" style="shape=partialRectangle;connectable=0;fillColor=none;top=0;left=0;bottom=0;right=0;editable=1;overflow=hidden;whiteSpace=wrap;html=1;rounded=1;shadow=1;fillStyle=auto;strokeColor=#BAC8D3;align=center;verticalAlign=middle;fontFamily=Helvetica;fontSize=12;fontColor=#EEEEEE;fontStyle=0;labelBackgroundColor=none;" vertex="1" parent="LPFi_fAzkbVzN_uqESW--238">
          <mxGeometry width="50" height="30" as="geometry">
            <mxRectangle width="50" height="30" as="alternateBounds" />
          </mxGeometry>
        </mxCell>
        <mxCell id="LPFi_fAzkbVzN_uqESW--240" value="login" style="shape=partialRectangle;connectable=0;fillColor=none;top=0;left=0;bottom=0;right=0;align=left;spacingLeft=6;overflow=hidden;whiteSpace=wrap;html=1;rounded=1;shadow=1;fillStyle=auto;strokeColor=#BAC8D3;verticalAlign=middle;fontFamily=Helvetica;fontSize=12;fontColor=#EEEEEE;fontStyle=0;labelBackgroundColor=none;" vertex="1" parent="LPFi_fAzkbVzN_uqESW--238">
          <mxGeometry x="50" width="150" height="30" as="geometry">
            <mxRectangle width="150" height="30" as="alternateBounds" />
          </mxGeometry>
        </mxCell>
        <mxCell id="LPFi_fAzkbVzN_uqESW--241" value="" style="shape=tableRow;horizontal=0;startSize=0;swimlaneHead=0;swimlaneBody=0;fillColor=none;collapsible=0;dropTarget=0;points=[[0,0.5],[1,0.5]];portConstraint=eastwest;top=0;left=0;right=0;bottom=0;rounded=1;shadow=1;fillStyle=auto;strokeColor=#BAC8D3;align=center;verticalAlign=middle;fontFamily=Helvetica;fontSize=12;fontColor=#EEEEEE;fontStyle=0;labelBackgroundColor=none;" vertex="1" parent="LPFi_fAzkbVzN_uqESW--231">
          <mxGeometry y="120" width="200" height="30" as="geometry" />
        </mxCell>
        <mxCell id="LPFi_fAzkbVzN_uqESW--242" value="" style="shape=partialRectangle;connectable=0;fillColor=none;top=0;left=0;bottom=0;right=0;editable=1;overflow=hidden;whiteSpace=wrap;html=1;rounded=1;shadow=1;fillStyle=auto;strokeColor=#BAC8D3;align=center;verticalAlign=middle;fontFamily=Helvetica;fontSize=12;fontColor=#EEEEEE;fontStyle=1;labelBackgroundColor=none;" vertex="1" parent="LPFi_fAzkbVzN_uqESW--241">
          <mxGeometry width="50" height="30" as="geometry">
            <mxRectangle width="50" height="30" as="alternateBounds" />
          </mxGeometry>
        </mxCell>
        <mxCell id="LPFi_fAzkbVzN_uqESW--243" value="password" style="shape=partialRectangle;connectable=0;fillColor=none;top=0;left=0;bottom=0;right=0;align=left;spacingLeft=6;overflow=hidden;whiteSpace=wrap;html=1;rounded=1;shadow=1;fillStyle=auto;strokeColor=#BAC8D3;verticalAlign=middle;fontFamily=Helvetica;fontSize=12;fontColor=#EEEEEE;fontStyle=0;labelBackgroundColor=none;" vertex="1" parent="LPFi_fAzkbVzN_uqESW--241">
          <mxGeometry x="50" width="150" height="30" as="geometry">
            <mxRectangle width="150" height="30" as="alternateBounds" />
          </mxGeometry>
        </mxCell>
        <mxCell id="LPFi_fAzkbVzN_uqESW--300" value="" style="shape=tableRow;horizontal=0;startSize=0;swimlaneHead=0;swimlaneBody=0;fillColor=none;collapsible=0;dropTarget=0;points=[[0,0.5],[1,0.5]];portConstraint=eastwest;top=0;left=0;right=0;bottom=0;rounded=1;shadow=1;fillStyle=auto;strokeColor=#BAC8D3;align=center;verticalAlign=middle;fontFamily=Helvetica;fontSize=12;fontColor=#EEEEEE;fontStyle=1;labelBackgroundColor=none;" vertex="1" parent="LPFi_fAzkbVzN_uqESW--231">
          <mxGeometry y="150" width="200" height="30" as="geometry" />
        </mxCell>
        <mxCell id="LPFi_fAzkbVzN_uqESW--301" value="enum" style="shape=partialRectangle;connectable=0;fillColor=none;top=0;left=0;bottom=0;right=0;editable=1;overflow=hidden;whiteSpace=wrap;html=1;rounded=1;shadow=1;fillStyle=auto;strokeColor=#BAC8D3;align=center;verticalAlign=middle;fontFamily=Helvetica;fontSize=12;fontColor=#EEEEEE;fontStyle=0;labelBackgroundColor=none;" vertex="1" parent="LPFi_fAzkbVzN_uqESW--300">
          <mxGeometry width="50" height="30" as="geometry">
            <mxRectangle width="50" height="30" as="alternateBounds" />
          </mxGeometry>
        </mxCell>
        <mxCell id="LPFi_fAzkbVzN_uqESW--302" value="type" style="shape=partialRectangle;connectable=0;fillColor=none;top=0;left=0;bottom=0;right=0;align=left;spacingLeft=6;overflow=hidden;whiteSpace=wrap;html=1;rounded=1;shadow=1;fillStyle=auto;strokeColor=#BAC8D3;verticalAlign=middle;fontFamily=Helvetica;fontSize=12;fontColor=#EEEEEE;fontStyle=0;labelBackgroundColor=none;" vertex="1" parent="LPFi_fAzkbVzN_uqESW--300">
          <mxGeometry x="50" width="150" height="30" as="geometry">
            <mxRectangle width="150" height="30" as="alternateBounds" />
          </mxGeometry>
        </mxCell>
        <mxCell id="LPFi_fAzkbVzN_uqESW--389" value="" style="shape=tableRow;horizontal=0;startSize=0;swimlaneHead=0;swimlaneBody=0;fillColor=none;collapsible=0;dropTarget=0;points=[[0,0.5],[1,0.5]];portConstraint=eastwest;top=0;left=0;right=0;bottom=0;rounded=1;shadow=1;fillStyle=auto;strokeColor=#BAC8D3;align=center;verticalAlign=middle;fontFamily=Helvetica;fontSize=12;fontColor=#EEEEEE;fontStyle=1;labelBackgroundColor=none;" vertex="1" parent="LPFi_fAzkbVzN_uqESW--231">
          <mxGeometry y="180" width="200" height="30" as="geometry" />
        </mxCell>
        <mxCell id="LPFi_fAzkbVzN_uqESW--390" value="" style="shape=partialRectangle;connectable=0;fillColor=none;top=0;left=0;bottom=0;right=0;editable=1;overflow=hidden;whiteSpace=wrap;html=1;rounded=1;shadow=1;fillStyle=auto;strokeColor=#BAC8D3;align=center;verticalAlign=middle;fontFamily=Helvetica;fontSize=12;fontColor=#EEEEEE;fontStyle=1;labelBackgroundColor=none;" vertex="1" parent="LPFi_fAzkbVzN_uqESW--389">
          <mxGeometry width="50" height="30" as="geometry">
            <mxRectangle width="50" height="30" as="alternateBounds" />
          </mxGeometry>
        </mxCell>
        <mxCell id="LPFi_fAzkbVzN_uqESW--391" value="first_name" style="shape=partialRectangle;connectable=0;fillColor=none;top=0;left=0;bottom=0;right=0;align=left;spacingLeft=6;overflow=hidden;whiteSpace=wrap;html=1;rounded=1;shadow=1;fillStyle=auto;strokeColor=#BAC8D3;verticalAlign=middle;fontFamily=Helvetica;fontSize=12;fontColor=#EEEEEE;fontStyle=0;labelBackgroundColor=none;" vertex="1" parent="LPFi_fAzkbVzN_uqESW--389">
          <mxGeometry x="50" width="150" height="30" as="geometry">
            <mxRectangle width="150" height="30" as="alternateBounds" />
          </mxGeometry>
        </mxCell>
        <mxCell id="LPFi_fAzkbVzN_uqESW--392" value="" style="shape=tableRow;horizontal=0;startSize=0;swimlaneHead=0;swimlaneBody=0;fillColor=none;collapsible=0;dropTarget=0;points=[[0,0.5],[1,0.5]];portConstraint=eastwest;top=0;left=0;right=0;bottom=0;rounded=1;shadow=1;fillStyle=auto;strokeColor=#BAC8D3;align=center;verticalAlign=middle;fontFamily=Helvetica;fontSize=12;fontColor=#EEEEEE;fontStyle=1;labelBackgroundColor=none;" vertex="1" parent="LPFi_fAzkbVzN_uqESW--231">
          <mxGeometry y="210" width="200" height="30" as="geometry" />
        </mxCell>
        <mxCell id="LPFi_fAzkbVzN_uqESW--393" value="" style="shape=partialRectangle;connectable=0;fillColor=none;top=0;left=0;bottom=0;right=0;editable=1;overflow=hidden;whiteSpace=wrap;html=1;rounded=1;shadow=1;fillStyle=auto;strokeColor=#BAC8D3;align=center;verticalAlign=middle;fontFamily=Helvetica;fontSize=12;fontColor=#EEEEEE;fontStyle=1;labelBackgroundColor=none;" vertex="1" parent="LPFi_fAzkbVzN_uqESW--392">
          <mxGeometry width="50" height="30" as="geometry">
            <mxRectangle width="50" height="30" as="alternateBounds" />
          </mxGeometry>
        </mxCell>
        <mxCell id="LPFi_fAzkbVzN_uqESW--394" value="last_name" style="shape=partialRectangle;connectable=0;fillColor=none;top=0;left=0;bottom=0;right=0;align=left;spacingLeft=6;overflow=hidden;whiteSpace=wrap;html=1;rounded=1;shadow=1;fillStyle=auto;strokeColor=#BAC8D3;verticalAlign=middle;fontFamily=Helvetica;fontSize=12;fontColor=#EEEEEE;fontStyle=0;labelBackgroundColor=none;" vertex="1" parent="LPFi_fAzkbVzN_uqESW--392">
          <mxGeometry x="50" width="150" height="30" as="geometry">
            <mxRectangle width="150" height="30" as="alternateBounds" />
          </mxGeometry>
        </mxCell>
        <mxCell id="LPFi_fAzkbVzN_uqESW--395" value="" style="shape=tableRow;horizontal=0;startSize=0;swimlaneHead=0;swimlaneBody=0;fillColor=none;collapsible=0;dropTarget=0;points=[[0,0.5],[1,0.5]];portConstraint=eastwest;top=0;left=0;right=0;bottom=0;rounded=1;shadow=1;fillStyle=auto;strokeColor=#BAC8D3;align=center;verticalAlign=middle;fontFamily=Helvetica;fontSize=12;fontColor=#EEEEEE;fontStyle=1;labelBackgroundColor=none;" vertex="1" parent="LPFi_fAzkbVzN_uqESW--231">
          <mxGeometry y="240" width="200" height="30" as="geometry" />
        </mxCell>
        <mxCell id="LPFi_fAzkbVzN_uqESW--396" value="" style="shape=partialRectangle;connectable=0;fillColor=none;top=0;left=0;bottom=0;right=0;editable=1;overflow=hidden;whiteSpace=wrap;html=1;rounded=1;shadow=1;fillStyle=auto;strokeColor=#BAC8D3;align=center;verticalAlign=middle;fontFamily=Helvetica;fontSize=12;fontColor=#EEEEEE;fontStyle=1;labelBackgroundColor=none;" vertex="1" parent="LPFi_fAzkbVzN_uqESW--395">
          <mxGeometry width="50" height="30" as="geometry">
            <mxRectangle width="50" height="30" as="alternateBounds" />
          </mxGeometry>
        </mxCell>
        <mxCell id="LPFi_fAzkbVzN_uqESW--397" value="email_secondary" style="shape=partialRectangle;connectable=0;fillColor=none;top=0;left=0;bottom=0;right=0;align=left;spacingLeft=6;overflow=hidden;whiteSpace=wrap;html=1;rounded=1;shadow=1;fillStyle=auto;strokeColor=#BAC8D3;verticalAlign=middle;fontFamily=Helvetica;fontSize=12;fontColor=#EEEEEE;fontStyle=0;labelBackgroundColor=none;" vertex="1" parent="LPFi_fAzkbVzN_uqESW--395">
          <mxGeometry x="50" width="150" height="30" as="geometry">
            <mxRectangle width="150" height="30" as="alternateBounds" />
          </mxGeometry>
        </mxCell>
        <mxCell id="LPFi_fAzkbVzN_uqESW--398" value="" style="shape=tableRow;horizontal=0;startSize=0;swimlaneHead=0;swimlaneBody=0;fillColor=none;collapsible=0;dropTarget=0;points=[[0,0.5],[1,0.5]];portConstraint=eastwest;top=0;left=0;right=0;bottom=0;rounded=1;shadow=1;fillStyle=auto;strokeColor=#BAC8D3;align=center;verticalAlign=middle;fontFamily=Helvetica;fontSize=12;fontColor=#EEEEEE;fontStyle=1;labelBackgroundColor=none;" vertex="1" parent="LPFi_fAzkbVzN_uqESW--231">
          <mxGeometry y="270" width="200" height="30" as="geometry" />
        </mxCell>
        <mxCell id="LPFi_fAzkbVzN_uqESW--399" value="" style="shape=partialRectangle;connectable=0;fillColor=none;top=0;left=0;bottom=0;right=0;editable=1;overflow=hidden;whiteSpace=wrap;html=1;rounded=1;shadow=1;fillStyle=auto;strokeColor=#BAC8D3;align=center;verticalAlign=middle;fontFamily=Helvetica;fontSize=12;fontColor=#EEEEEE;fontStyle=1;labelBackgroundColor=none;" vertex="1" parent="LPFi_fAzkbVzN_uqESW--398">
          <mxGeometry width="50" height="30" as="geometry">
            <mxRectangle width="50" height="30" as="alternateBounds" />
          </mxGeometry>
        </mxCell>
        <mxCell id="LPFi_fAzkbVzN_uqESW--400" value="phone" style="shape=partialRectangle;connectable=0;fillColor=none;top=0;left=0;bottom=0;right=0;align=left;spacingLeft=6;overflow=hidden;whiteSpace=wrap;html=1;rounded=1;shadow=1;fillStyle=auto;strokeColor=#BAC8D3;verticalAlign=middle;fontFamily=Helvetica;fontSize=12;fontColor=#EEEEEE;fontStyle=0;labelBackgroundColor=none;" vertex="1" parent="LPFi_fAzkbVzN_uqESW--398">
          <mxGeometry x="50" width="150" height="30" as="geometry">
            <mxRectangle width="150" height="30" as="alternateBounds" />
          </mxGeometry>
        </mxCell>
        <mxCell id="LPFi_fAzkbVzN_uqESW--429" value="" style="shape=tableRow;horizontal=0;startSize=0;swimlaneHead=0;swimlaneBody=0;fillColor=none;collapsible=0;dropTarget=0;points=[[0,0.5],[1,0.5]];portConstraint=eastwest;top=0;left=0;right=0;bottom=0;rounded=1;shadow=1;fillStyle=auto;strokeColor=#BAC8D3;align=center;verticalAlign=middle;fontFamily=Helvetica;fontSize=12;fontColor=#EEEEEE;fontStyle=1;labelBackgroundColor=none;" vertex="1" parent="LPFi_fAzkbVzN_uqESW--231">
          <mxGeometry y="300" width="200" height="30" as="geometry" />
        </mxCell>
        <mxCell id="LPFi_fAzkbVzN_uqESW--430" value="" style="shape=partialRectangle;connectable=0;fillColor=none;top=0;left=0;bottom=0;right=0;editable=1;overflow=hidden;whiteSpace=wrap;html=1;rounded=1;shadow=1;fillStyle=auto;strokeColor=#BAC8D3;align=center;verticalAlign=middle;fontFamily=Helvetica;fontSize=12;fontColor=#EEEEEE;fontStyle=1;labelBackgroundColor=none;" vertex="1" parent="LPFi_fAzkbVzN_uqESW--429">
          <mxGeometry width="50" height="30" as="geometry">
            <mxRectangle width="50" height="30" as="alternateBounds" />
          </mxGeometry>
        </mxCell>
        <mxCell id="LPFi_fAzkbVzN_uqESW--431" value="phone_secondary" style="shape=partialRectangle;connectable=0;fillColor=none;top=0;left=0;bottom=0;right=0;align=left;spacingLeft=6;overflow=hidden;whiteSpace=wrap;html=1;rounded=1;shadow=1;fillStyle=auto;strokeColor=#BAC8D3;verticalAlign=middle;fontFamily=Helvetica;fontSize=12;fontColor=#EEEEEE;fontStyle=0;labelBackgroundColor=none;" vertex="1" parent="LPFi_fAzkbVzN_uqESW--429">
          <mxGeometry x="50" width="150" height="30" as="geometry">
            <mxRectangle width="150" height="30" as="alternateBounds" />
          </mxGeometry>
        </mxCell>
        <mxCell id="LPFi_fAzkbVzN_uqESW--257" value="provider" style="shape=table;startSize=30;container=1;collapsible=1;childLayout=tableLayout;fixedRows=1;rowLines=0;fontStyle=1;align=center;resizeLast=1;html=1;rounded=1;shadow=1;fillStyle=auto;strokeColor=#BAC8D3;verticalAlign=middle;fontFamily=Helvetica;fontSize=12;fontColor=#EEEEEE;labelBackgroundColor=none;fillColor=#09555B;" vertex="1" parent="1">
          <mxGeometry x="2270" y="580" width="180" height="150" as="geometry" />
        </mxCell>
        <mxCell id="LPFi_fAzkbVzN_uqESW--258" value="" style="shape=tableRow;horizontal=0;startSize=0;swimlaneHead=0;swimlaneBody=0;fillColor=none;collapsible=0;dropTarget=0;points=[[0,0.5],[1,0.5]];portConstraint=eastwest;top=0;left=0;right=0;bottom=1;rounded=1;shadow=1;fillStyle=auto;strokeColor=#BAC8D3;align=center;verticalAlign=middle;fontFamily=Helvetica;fontSize=12;fontColor=#EEEEEE;fontStyle=1;labelBackgroundColor=none;" vertex="1" parent="LPFi_fAzkbVzN_uqESW--257">
          <mxGeometry y="30" width="180" height="30" as="geometry" />
        </mxCell>
        <mxCell id="LPFi_fAzkbVzN_uqESW--259" value="PK" style="shape=partialRectangle;connectable=0;fillColor=none;top=0;left=0;bottom=0;right=0;fontStyle=1;overflow=hidden;whiteSpace=wrap;html=1;rounded=1;shadow=1;fillStyle=auto;strokeColor=#BAC8D3;align=center;verticalAlign=middle;fontFamily=Helvetica;fontSize=12;fontColor=#EEEEEE;labelBackgroundColor=none;" vertex="1" parent="LPFi_fAzkbVzN_uqESW--258">
          <mxGeometry width="40" height="30" as="geometry">
            <mxRectangle width="40" height="30" as="alternateBounds" />
          </mxGeometry>
        </mxCell>
        <mxCell id="LPFi_fAzkbVzN_uqESW--260" value="UniqueID" style="shape=partialRectangle;connectable=0;fillColor=none;top=0;left=0;bottom=0;right=0;align=left;spacingLeft=6;fontStyle=5;overflow=hidden;whiteSpace=wrap;html=1;rounded=1;shadow=1;fillStyle=auto;strokeColor=#BAC8D3;verticalAlign=middle;fontFamily=Helvetica;fontSize=12;fontColor=#EEEEEE;labelBackgroundColor=none;" vertex="1" parent="LPFi_fAzkbVzN_uqESW--258">
          <mxGeometry x="40" width="140" height="30" as="geometry">
            <mxRectangle width="140" height="30" as="alternateBounds" />
          </mxGeometry>
        </mxCell>
        <mxCell id="LPFi_fAzkbVzN_uqESW--261" value="" style="shape=tableRow;horizontal=0;startSize=0;swimlaneHead=0;swimlaneBody=0;fillColor=none;collapsible=0;dropTarget=0;points=[[0,0.5],[1,0.5]];portConstraint=eastwest;top=0;left=0;right=0;bottom=0;rounded=1;shadow=1;fillStyle=auto;strokeColor=#BAC8D3;align=center;verticalAlign=middle;fontFamily=Helvetica;fontSize=12;fontColor=#EEEEEE;fontStyle=1;labelBackgroundColor=none;" vertex="1" parent="LPFi_fAzkbVzN_uqESW--257">
          <mxGeometry y="60" width="180" height="30" as="geometry" />
        </mxCell>
        <mxCell id="LPFi_fAzkbVzN_uqESW--262" value="uuid" style="shape=partialRectangle;connectable=0;fillColor=none;top=0;left=0;bottom=0;right=0;editable=1;overflow=hidden;whiteSpace=wrap;html=1;rounded=1;shadow=1;fillStyle=auto;strokeColor=#BAC8D3;align=center;verticalAlign=middle;fontFamily=Helvetica;fontSize=12;fontColor=#EEEEEE;fontStyle=1;labelBackgroundColor=none;" vertex="1" parent="LPFi_fAzkbVzN_uqESW--261">
          <mxGeometry width="40" height="30" as="geometry">
            <mxRectangle width="40" height="30" as="alternateBounds" />
          </mxGeometry>
        </mxCell>
        <mxCell id="LPFi_fAzkbVzN_uqESW--263" value="user_id" style="shape=partialRectangle;connectable=0;fillColor=none;top=0;left=0;bottom=0;right=0;align=left;spacingLeft=6;overflow=hidden;whiteSpace=wrap;html=1;rounded=1;shadow=1;fillStyle=auto;strokeColor=#BAC8D3;verticalAlign=middle;fontFamily=Helvetica;fontSize=12;fontColor=#EEEEEE;fontStyle=1;labelBackgroundColor=none;" vertex="1" parent="LPFi_fAzkbVzN_uqESW--261">
          <mxGeometry x="40" width="140" height="30" as="geometry">
            <mxRectangle width="140" height="30" as="alternateBounds" />
          </mxGeometry>
        </mxCell>
        <mxCell id="LPFi_fAzkbVzN_uqESW--264" value="" style="shape=tableRow;horizontal=0;startSize=0;swimlaneHead=0;swimlaneBody=0;fillColor=none;collapsible=0;dropTarget=0;points=[[0,0.5],[1,0.5]];portConstraint=eastwest;top=0;left=0;right=0;bottom=0;rounded=1;shadow=1;fillStyle=auto;strokeColor=#BAC8D3;align=center;verticalAlign=middle;fontFamily=Helvetica;fontSize=12;fontColor=#EEEEEE;fontStyle=1;labelBackgroundColor=none;" vertex="1" parent="LPFi_fAzkbVzN_uqESW--257">
          <mxGeometry y="90" width="180" height="30" as="geometry" />
        </mxCell>
        <mxCell id="LPFi_fAzkbVzN_uqESW--265" value="" style="shape=partialRectangle;connectable=0;fillColor=none;top=0;left=0;bottom=0;right=0;editable=1;overflow=hidden;whiteSpace=wrap;html=1;rounded=1;shadow=1;fillStyle=auto;strokeColor=#BAC8D3;align=center;verticalAlign=middle;fontFamily=Helvetica;fontSize=12;fontColor=#EEEEEE;fontStyle=0;labelBackgroundColor=none;" vertex="1" parent="LPFi_fAzkbVzN_uqESW--264">
          <mxGeometry width="40" height="30" as="geometry">
            <mxRectangle width="40" height="30" as="alternateBounds" />
          </mxGeometry>
        </mxCell>
        <mxCell id="LPFi_fAzkbVzN_uqESW--266" value="Row 2" style="shape=partialRectangle;connectable=0;fillColor=none;top=0;left=0;bottom=0;right=0;align=left;spacingLeft=6;overflow=hidden;whiteSpace=wrap;html=1;rounded=1;shadow=1;fillStyle=auto;strokeColor=#BAC8D3;verticalAlign=middle;fontFamily=Helvetica;fontSize=12;fontColor=#EEEEEE;fontStyle=0;labelBackgroundColor=none;" vertex="1" parent="LPFi_fAzkbVzN_uqESW--264">
          <mxGeometry x="40" width="140" height="30" as="geometry">
            <mxRectangle width="140" height="30" as="alternateBounds" />
          </mxGeometry>
        </mxCell>
        <mxCell id="LPFi_fAzkbVzN_uqESW--267" value="" style="shape=tableRow;horizontal=0;startSize=0;swimlaneHead=0;swimlaneBody=0;fillColor=none;collapsible=0;dropTarget=0;points=[[0,0.5],[1,0.5]];portConstraint=eastwest;top=0;left=0;right=0;bottom=0;rounded=1;shadow=1;fillStyle=auto;strokeColor=#BAC8D3;align=center;verticalAlign=middle;fontFamily=Helvetica;fontSize=12;fontColor=#EEEEEE;fontStyle=1;labelBackgroundColor=none;" vertex="1" parent="LPFi_fAzkbVzN_uqESW--257">
          <mxGeometry y="120" width="180" height="30" as="geometry" />
        </mxCell>
        <mxCell id="LPFi_fAzkbVzN_uqESW--268" value="" style="shape=partialRectangle;connectable=0;fillColor=none;top=0;left=0;bottom=0;right=0;editable=1;overflow=hidden;whiteSpace=wrap;html=1;rounded=1;shadow=1;fillStyle=auto;strokeColor=#BAC8D3;align=center;verticalAlign=middle;fontFamily=Helvetica;fontSize=12;fontColor=#EEEEEE;fontStyle=0;labelBackgroundColor=none;" vertex="1" parent="LPFi_fAzkbVzN_uqESW--267">
          <mxGeometry width="40" height="30" as="geometry">
            <mxRectangle width="40" height="30" as="alternateBounds" />
          </mxGeometry>
        </mxCell>
        <mxCell id="LPFi_fAzkbVzN_uqESW--269" value="Row 3" style="shape=partialRectangle;connectable=0;fillColor=none;top=0;left=0;bottom=0;right=0;align=left;spacingLeft=6;overflow=hidden;whiteSpace=wrap;html=1;rounded=1;shadow=1;fillStyle=auto;strokeColor=#BAC8D3;verticalAlign=middle;fontFamily=Helvetica;fontSize=12;fontColor=#EEEEEE;fontStyle=0;labelBackgroundColor=none;" vertex="1" parent="LPFi_fAzkbVzN_uqESW--267">
          <mxGeometry x="40" width="140" height="30" as="geometry">
            <mxRectangle width="140" height="30" as="alternateBounds" />
          </mxGeometry>
        </mxCell>
        <mxCell id="LPFi_fAzkbVzN_uqESW--283" value="permissions" style="shape=table;startSize=30;container=1;collapsible=1;childLayout=tableLayout;fixedRows=1;rowLines=0;fontStyle=1;align=center;resizeLast=1;html=1;rounded=1;shadow=1;fillStyle=auto;strokeColor=#BAC8D3;verticalAlign=middle;fontFamily=Helvetica;fontSize=12;fontColor=#EEEEEE;labelBackgroundColor=none;fillColor=#09555B;" vertex="1" parent="1">
          <mxGeometry x="1080" y="220" width="190" height="90" as="geometry" />
        </mxCell>
        <mxCell id="LPFi_fAzkbVzN_uqESW--284" value="" style="shape=tableRow;horizontal=0;startSize=0;swimlaneHead=0;swimlaneBody=0;fillColor=none;collapsible=0;dropTarget=0;points=[[0,0.5],[1,0.5]];portConstraint=eastwest;top=0;left=0;right=0;bottom=1;rounded=1;shadow=1;fillStyle=auto;strokeColor=#BAC8D3;align=center;verticalAlign=middle;fontFamily=Helvetica;fontSize=12;fontColor=#EEEEEE;fontStyle=1;labelBackgroundColor=none;" vertex="1" parent="LPFi_fAzkbVzN_uqESW--283">
          <mxGeometry y="30" width="190" height="30" as="geometry" />
        </mxCell>
        <mxCell id="LPFi_fAzkbVzN_uqESW--285" value="PK" style="shape=partialRectangle;connectable=0;fillColor=none;top=0;left=0;bottom=0;right=0;fontStyle=1;overflow=hidden;whiteSpace=wrap;html=1;rounded=1;shadow=1;fillStyle=auto;strokeColor=#BAC8D3;align=center;verticalAlign=middle;fontFamily=Helvetica;fontSize=12;fontColor=#EEEEEE;labelBackgroundColor=none;" vertex="1" parent="LPFi_fAzkbVzN_uqESW--284">
          <mxGeometry width="59.999999999999545" height="30" as="geometry">
            <mxRectangle width="59.999999999999545" height="30" as="alternateBounds" />
          </mxGeometry>
        </mxCell>
        <mxCell id="LPFi_fAzkbVzN_uqESW--286" value="UniqueID" style="shape=partialRectangle;connectable=0;fillColor=none;top=0;left=0;bottom=0;right=0;align=left;spacingLeft=6;fontStyle=5;overflow=hidden;whiteSpace=wrap;html=1;rounded=1;shadow=1;fillStyle=auto;strokeColor=#BAC8D3;verticalAlign=middle;fontFamily=Helvetica;fontSize=12;fontColor=#EEEEEE;labelBackgroundColor=none;" vertex="1" parent="LPFi_fAzkbVzN_uqESW--284">
          <mxGeometry x="59.999999999999545" width="130.00000000000045" height="30" as="geometry">
            <mxRectangle width="130.00000000000045" height="30" as="alternateBounds" />
          </mxGeometry>
        </mxCell>
        <mxCell id="LPFi_fAzkbVzN_uqESW--287" value="" style="shape=tableRow;horizontal=0;startSize=0;swimlaneHead=0;swimlaneBody=0;fillColor=none;collapsible=0;dropTarget=0;points=[[0,0.5],[1,0.5]];portConstraint=eastwest;top=0;left=0;right=0;bottom=0;rounded=1;shadow=1;fillStyle=auto;strokeColor=#BAC8D3;align=center;verticalAlign=middle;fontFamily=Helvetica;fontSize=12;fontColor=#EEEEEE;fontStyle=1;labelBackgroundColor=none;" vertex="1" parent="LPFi_fAzkbVzN_uqESW--283">
          <mxGeometry y="60" width="190" height="30" as="geometry" />
        </mxCell>
        <mxCell id="LPFi_fAzkbVzN_uqESW--288" value="varchar" style="shape=partialRectangle;connectable=0;fillColor=none;top=0;left=0;bottom=0;right=0;editable=1;overflow=hidden;whiteSpace=wrap;html=1;rounded=1;shadow=1;fillStyle=auto;strokeColor=#BAC8D3;align=center;verticalAlign=middle;fontFamily=Helvetica;fontSize=12;fontColor=#EEEEEE;fontStyle=0;labelBackgroundColor=none;" vertex="1" parent="LPFi_fAzkbVzN_uqESW--287">
          <mxGeometry width="59.999999999999545" height="30" as="geometry">
            <mxRectangle width="59.999999999999545" height="30" as="alternateBounds" />
          </mxGeometry>
        </mxCell>
        <mxCell id="LPFi_fAzkbVzN_uqESW--289" value="name" style="shape=partialRectangle;connectable=0;fillColor=none;top=0;left=0;bottom=0;right=0;align=left;spacingLeft=6;overflow=hidden;whiteSpace=wrap;html=1;rounded=1;shadow=1;fillStyle=auto;strokeColor=#BAC8D3;verticalAlign=middle;fontFamily=Helvetica;fontSize=12;fontColor=#EEEEEE;fontStyle=0;labelBackgroundColor=none;" vertex="1" parent="LPFi_fAzkbVzN_uqESW--287">
          <mxGeometry x="59.999999999999545" width="130.00000000000045" height="30" as="geometry">
            <mxRectangle width="130.00000000000045" height="30" as="alternateBounds" />
          </mxGeometry>
        </mxCell>
        <object label="role_permissions" id="LPFi_fAzkbVzN_uqESW--325">
          <mxCell style="shape=table;startSize=30;container=1;collapsible=1;childLayout=tableLayout;fixedRows=1;rowLines=0;fontStyle=1;align=center;resizeLast=1;html=1;rounded=1;shadow=1;fillStyle=auto;strokeColor=#BAC8D3;verticalAlign=middle;fontFamily=Helvetica;fontSize=12;fontColor=#EEEEEE;labelBackgroundColor=none;fillColor=#09555B;" vertex="1" parent="1">
            <mxGeometry x="1300" y="45" width="180" height="120" as="geometry" />
          </mxCell>
        </object>
        <mxCell id="LPFi_fAzkbVzN_uqESW--326" value="" style="shape=tableRow;horizontal=0;startSize=0;swimlaneHead=0;swimlaneBody=0;fillColor=none;collapsible=0;dropTarget=0;points=[[0,0.5],[1,0.5]];portConstraint=eastwest;top=0;left=0;right=0;bottom=1;rounded=1;shadow=1;fillStyle=auto;strokeColor=#BAC8D3;align=center;verticalAlign=middle;fontFamily=Helvetica;fontSize=12;fontColor=#EEEEEE;fontStyle=1;labelBackgroundColor=none;" vertex="1" parent="LPFi_fAzkbVzN_uqESW--325">
          <mxGeometry y="30" width="180" height="30" as="geometry" />
        </mxCell>
        <mxCell id="LPFi_fAzkbVzN_uqESW--327" value="PK" style="shape=partialRectangle;connectable=0;fillColor=none;top=0;left=0;bottom=0;right=0;fontStyle=1;overflow=hidden;whiteSpace=wrap;html=1;rounded=1;shadow=1;fillStyle=auto;strokeColor=#BAC8D3;align=center;verticalAlign=middle;fontFamily=Helvetica;fontSize=12;fontColor=#EEEEEE;labelBackgroundColor=none;" vertex="1" parent="LPFi_fAzkbVzN_uqESW--326">
          <mxGeometry width="49.999999999999545" height="30" as="geometry">
            <mxRectangle width="49.999999999999545" height="30" as="alternateBounds" />
          </mxGeometry>
        </mxCell>
        <mxCell id="LPFi_fAzkbVzN_uqESW--328" value="UniqueID" style="shape=partialRectangle;connectable=0;fillColor=none;top=0;left=0;bottom=0;right=0;align=left;spacingLeft=6;fontStyle=5;overflow=hidden;whiteSpace=wrap;html=1;rounded=1;shadow=1;fillStyle=auto;strokeColor=#BAC8D3;verticalAlign=middle;fontFamily=Helvetica;fontSize=12;fontColor=#EEEEEE;labelBackgroundColor=none;" vertex="1" parent="LPFi_fAzkbVzN_uqESW--326">
          <mxGeometry x="49.999999999999545" width="130.00000000000045" height="30" as="geometry">
            <mxRectangle width="130.00000000000045" height="30" as="alternateBounds" />
          </mxGeometry>
        </mxCell>
        <mxCell id="LPFi_fAzkbVzN_uqESW--329" value="" style="shape=tableRow;horizontal=0;startSize=0;swimlaneHead=0;swimlaneBody=0;fillColor=none;collapsible=0;dropTarget=0;points=[[0,0.5],[1,0.5]];portConstraint=eastwest;top=0;left=0;right=0;bottom=0;rounded=1;shadow=1;fillStyle=auto;strokeColor=#BAC8D3;align=center;verticalAlign=middle;fontFamily=Helvetica;fontSize=12;fontColor=#EEEEEE;fontStyle=1;labelBackgroundColor=none;" vertex="1" parent="LPFi_fAzkbVzN_uqESW--325">
          <mxGeometry y="60" width="180" height="30" as="geometry" />
        </mxCell>
        <mxCell id="LPFi_fAzkbVzN_uqESW--330" value="uuid" style="shape=partialRectangle;connectable=0;fillColor=none;top=0;left=0;bottom=0;right=0;editable=1;overflow=hidden;whiteSpace=wrap;html=1;rounded=1;shadow=1;fillStyle=auto;strokeColor=#BAC8D3;align=center;verticalAlign=middle;fontFamily=Helvetica;fontSize=12;fontColor=#EEEEEE;fontStyle=1;labelBackgroundColor=none;" vertex="1" parent="LPFi_fAzkbVzN_uqESW--329">
          <mxGeometry width="49.999999999999545" height="30" as="geometry">
            <mxRectangle width="49.999999999999545" height="30" as="alternateBounds" />
          </mxGeometry>
        </mxCell>
        <mxCell id="LPFi_fAzkbVzN_uqESW--331" value="role_id" style="shape=partialRectangle;connectable=0;fillColor=none;top=0;left=0;bottom=0;right=0;align=left;spacingLeft=6;overflow=hidden;whiteSpace=wrap;html=1;rounded=1;shadow=1;fillStyle=auto;strokeColor=#BAC8D3;verticalAlign=middle;fontFamily=Helvetica;fontSize=12;fontColor=#EEEEEE;fontStyle=1;labelBackgroundColor=none;" vertex="1" parent="LPFi_fAzkbVzN_uqESW--329">
          <mxGeometry x="49.999999999999545" width="130.00000000000045" height="30" as="geometry">
            <mxRectangle width="130.00000000000045" height="30" as="alternateBounds" />
          </mxGeometry>
        </mxCell>
        <mxCell id="LPFi_fAzkbVzN_uqESW--332" value="" style="shape=tableRow;horizontal=0;startSize=0;swimlaneHead=0;swimlaneBody=0;fillColor=none;collapsible=0;dropTarget=0;points=[[0,0.5],[1,0.5]];portConstraint=eastwest;top=0;left=0;right=0;bottom=0;rounded=1;shadow=1;fillStyle=auto;strokeColor=#BAC8D3;align=center;verticalAlign=middle;fontFamily=Helvetica;fontSize=12;fontColor=#EEEEEE;fontStyle=1;labelBackgroundColor=none;" vertex="1" parent="LPFi_fAzkbVzN_uqESW--325">
          <mxGeometry y="90" width="180" height="30" as="geometry" />
        </mxCell>
        <mxCell id="LPFi_fAzkbVzN_uqESW--333" value="uuid" style="shape=partialRectangle;connectable=0;fillColor=none;top=0;left=0;bottom=0;right=0;editable=1;overflow=hidden;whiteSpace=wrap;html=1;rounded=1;shadow=1;fillStyle=auto;strokeColor=#BAC8D3;align=center;verticalAlign=middle;fontFamily=Helvetica;fontSize=12;fontColor=#EEEEEE;fontStyle=1;labelBackgroundColor=none;" vertex="1" parent="LPFi_fAzkbVzN_uqESW--332">
          <mxGeometry width="49.999999999999545" height="30" as="geometry">
            <mxRectangle width="49.999999999999545" height="30" as="alternateBounds" />
          </mxGeometry>
        </mxCell>
        <mxCell id="LPFi_fAzkbVzN_uqESW--334" value="permission_id" style="shape=partialRectangle;connectable=0;fillColor=none;top=0;left=0;bottom=0;right=0;align=left;spacingLeft=6;overflow=hidden;whiteSpace=wrap;html=1;rounded=1;shadow=1;fillStyle=auto;strokeColor=#BAC8D3;verticalAlign=middle;fontFamily=Helvetica;fontSize=12;fontColor=#EEEEEE;fontStyle=1;labelBackgroundColor=none;" vertex="1" parent="LPFi_fAzkbVzN_uqESW--332">
          <mxGeometry x="49.999999999999545" width="130.00000000000045" height="30" as="geometry">
            <mxRectangle width="130.00000000000045" height="30" as="alternateBounds" />
          </mxGeometry>
        </mxCell>
        <mxCell id="LPFi_fAzkbVzN_uqESW--367" value="roles" style="shape=table;startSize=30;container=1;collapsible=1;childLayout=tableLayout;fixedRows=1;rowLines=0;fontStyle=1;align=center;resizeLast=1;html=1;rounded=1;shadow=1;fillStyle=auto;strokeColor=#BAC8D3;verticalAlign=middle;fontFamily=Helvetica;fontSize=12;fontColor=#EEEEEE;labelBackgroundColor=none;fillColor=#09555B;" vertex="1" parent="1">
          <mxGeometry x="1500" y="220" width="180" height="90" as="geometry" />
        </mxCell>
        <mxCell id="LPFi_fAzkbVzN_uqESW--368" value="" style="shape=tableRow;horizontal=0;startSize=0;swimlaneHead=0;swimlaneBody=0;fillColor=none;collapsible=0;dropTarget=0;points=[[0,0.5],[1,0.5]];portConstraint=eastwest;top=0;left=0;right=0;bottom=1;rounded=1;shadow=1;fillStyle=auto;strokeColor=#BAC8D3;align=center;verticalAlign=middle;fontFamily=Helvetica;fontSize=12;fontColor=#EEEEEE;fontStyle=1;labelBackgroundColor=none;" vertex="1" parent="LPFi_fAzkbVzN_uqESW--367">
          <mxGeometry y="30" width="180" height="30" as="geometry" />
        </mxCell>
        <mxCell id="LPFi_fAzkbVzN_uqESW--369" value="PK" style="shape=partialRectangle;connectable=0;fillColor=none;top=0;left=0;bottom=0;right=0;fontStyle=1;overflow=hidden;whiteSpace=wrap;html=1;rounded=1;shadow=1;fillStyle=auto;strokeColor=#BAC8D3;align=center;verticalAlign=middle;fontFamily=Helvetica;fontSize=12;fontColor=#EEEEEE;labelBackgroundColor=none;" vertex="1" parent="LPFi_fAzkbVzN_uqESW--368">
          <mxGeometry width="50" height="30" as="geometry">
            <mxRectangle width="50" height="30" as="alternateBounds" />
          </mxGeometry>
        </mxCell>
        <mxCell id="LPFi_fAzkbVzN_uqESW--370" value="UniqueID" style="shape=partialRectangle;connectable=0;fillColor=none;top=0;left=0;bottom=0;right=0;align=left;spacingLeft=6;fontStyle=5;overflow=hidden;whiteSpace=wrap;html=1;rounded=1;shadow=1;fillStyle=auto;strokeColor=#BAC8D3;verticalAlign=middle;fontFamily=Helvetica;fontSize=12;fontColor=#EEEEEE;labelBackgroundColor=none;" vertex="1" parent="LPFi_fAzkbVzN_uqESW--368">
          <mxGeometry x="50" width="130" height="30" as="geometry">
            <mxRectangle width="130" height="30" as="alternateBounds" />
          </mxGeometry>
        </mxCell>
        <mxCell id="LPFi_fAzkbVzN_uqESW--371" value="" style="shape=tableRow;horizontal=0;startSize=0;swimlaneHead=0;swimlaneBody=0;fillColor=none;collapsible=0;dropTarget=0;points=[[0,0.5],[1,0.5]];portConstraint=eastwest;top=0;left=0;right=0;bottom=0;rounded=1;shadow=1;fillStyle=auto;strokeColor=#BAC8D3;align=center;verticalAlign=middle;fontFamily=Helvetica;fontSize=12;fontColor=#EEEEEE;fontStyle=1;labelBackgroundColor=none;" vertex="1" parent="LPFi_fAzkbVzN_uqESW--367">
          <mxGeometry y="60" width="180" height="30" as="geometry" />
        </mxCell>
        <mxCell id="LPFi_fAzkbVzN_uqESW--372" value="unum" style="shape=partialRectangle;connectable=0;fillColor=none;top=0;left=0;bottom=0;right=0;editable=1;overflow=hidden;whiteSpace=wrap;html=1;rounded=1;shadow=1;fillStyle=auto;strokeColor=#BAC8D3;align=center;verticalAlign=middle;fontFamily=Helvetica;fontSize=12;fontColor=#EEEEEE;fontStyle=0;labelBackgroundColor=none;" vertex="1" parent="LPFi_fAzkbVzN_uqESW--371">
          <mxGeometry width="50" height="30" as="geometry">
            <mxRectangle width="50" height="30" as="alternateBounds" />
          </mxGeometry>
        </mxCell>
        <mxCell id="LPFi_fAzkbVzN_uqESW--373" value="name" style="shape=partialRectangle;connectable=0;fillColor=none;top=0;left=0;bottom=0;right=0;align=left;spacingLeft=6;overflow=hidden;whiteSpace=wrap;html=1;rounded=1;shadow=1;fillStyle=auto;strokeColor=#BAC8D3;verticalAlign=middle;fontFamily=Helvetica;fontSize=12;fontColor=#EEEEEE;fontStyle=0;labelBackgroundColor=none;" vertex="1" parent="LPFi_fAzkbVzN_uqESW--371">
          <mxGeometry x="50" width="130" height="30" as="geometry">
            <mxRectangle width="130" height="30" as="alternateBounds" />
          </mxGeometry>
        </mxCell>
        <mxCell id="LPFi_fAzkbVzN_uqESW--380" value="" style="shape=tableRow;horizontal=0;startSize=0;swimlaneHead=0;swimlaneBody=0;fillColor=none;collapsible=0;dropTarget=0;points=[[0,0.5],[1,0.5]];portConstraint=eastwest;top=0;left=0;right=0;bottom=0;rounded=1;shadow=1;fillStyle=auto;strokeColor=#BAC8D3;align=center;verticalAlign=middle;fontFamily=Helvetica;fontSize=12;fontColor=#EEEEEE;fontStyle=1;labelBackgroundColor=none;" vertex="1" parent="1">
          <mxGeometry x="2170" y="370" width="180" height="30" as="geometry" />
        </mxCell>
        <mxCell id="LPFi_fAzkbVzN_uqESW--381" value="" style="shape=partialRectangle;connectable=0;fillColor=none;top=0;left=0;bottom=0;right=0;editable=1;overflow=hidden;whiteSpace=wrap;html=1;rounded=1;shadow=1;fillStyle=auto;strokeColor=#BAC8D3;align=center;verticalAlign=middle;fontFamily=Helvetica;fontSize=12;fontColor=#EEEEEE;fontStyle=1;labelBackgroundColor=none;" vertex="1" parent="LPFi_fAzkbVzN_uqESW--380">
          <mxGeometry width="30" height="30" as="geometry">
            <mxRectangle width="30" height="30" as="alternateBounds" />
          </mxGeometry>
        </mxCell>
        <mxCell id="LPFi_fAzkbVzN_uqESW--435" style="edgeStyle=orthogonalEdgeStyle;rounded=1;orthogonalLoop=1;jettySize=auto;html=1;exitX=0;exitY=0.5;exitDx=0;exitDy=0;fontFamily=Helvetica;fontSize=12;fontColor=#EEEEEE;fontStyle=1;labelBackgroundColor=none;jumpStyle=none;startArrow=none;startFill=0;endArrow=ERmany;fillColor=#1ba1e2;strokeColor=light-dark(#006EAF, #000305);endFill=0;strokeWidth=2;align=center;verticalAlign=middle;startSize=12;endSize=12;" edge="1" parent="1" source="LPFi_fAzkbVzN_uqESW--232" target="MeG4YokCds6r6bCYYfKP-57">
          <mxGeometry relative="1" as="geometry" />
        </mxCell>
        <mxCell id="LPFi_fAzkbVzN_uqESW--618" style="edgeStyle=orthogonalEdgeStyle;shape=connector;rounded=1;jumpStyle=none;orthogonalLoop=1;jettySize=auto;html=1;exitX=1;exitY=0.5;exitDx=0;exitDy=0;strokeColor=light-dark(#006EAF, #000305);strokeWidth=2;align=center;verticalAlign=middle;fontFamily=Helvetica;fontSize=12;fontColor=#EEEEEE;fontStyle=1;labelBackgroundColor=none;startArrow=none;startFill=0;endArrow=none;endFill=0;fillColor=#1ba1e2;startSize=12;endSize=12;" edge="1" parent="1" source="LPFi_fAzkbVzN_uqESW--549" target="LPFi_fAzkbVzN_uqESW--479">
          <mxGeometry relative="1" as="geometry" />
        </mxCell>
        <mxCell id="LPFi_fAzkbVzN_uqESW--436" style="edgeStyle=orthogonalEdgeStyle;shape=connector;rounded=1;jumpStyle=none;orthogonalLoop=1;jettySize=auto;html=1;exitX=1;exitY=0.5;exitDx=0;exitDy=0;strokeColor=light-dark(#006EAF, #000305);strokeWidth=2;align=center;verticalAlign=middle;fontFamily=Helvetica;fontSize=12;fontColor=#EEEEEE;fontStyle=1;labelBackgroundColor=none;startArrow=none;startFill=0;endArrow=ERmany;endFill=0;fillColor=#1ba1e2;startSize=12;endSize=12;" edge="1" parent="1" source="LPFi_fAzkbVzN_uqESW--368" target="MeG4YokCds6r6bCYYfKP-60">
          <mxGeometry relative="1" as="geometry" />
        </mxCell>
        <mxCell id="LPFi_fAzkbVzN_uqESW--437" style="edgeStyle=orthogonalEdgeStyle;shape=connector;rounded=1;jumpStyle=none;orthogonalLoop=1;jettySize=auto;html=1;exitX=0;exitY=0.5;exitDx=0;exitDy=0;strokeColor=light-dark(#006EAF, #000305);strokeWidth=2;align=center;verticalAlign=middle;fontFamily=Helvetica;fontSize=12;fontColor=#EEEEEE;fontStyle=1;labelBackgroundColor=none;startArrow=none;startFill=0;endArrow=ERmany;endFill=0;fillColor=#1ba1e2;startSize=12;endSize=12;" edge="1" parent="1" source="LPFi_fAzkbVzN_uqESW--368" target="LPFi_fAzkbVzN_uqESW--329">
          <mxGeometry relative="1" as="geometry" />
        </mxCell>
        <mxCell id="LPFi_fAzkbVzN_uqESW--438" style="edgeStyle=orthogonalEdgeStyle;shape=connector;rounded=1;jumpStyle=none;orthogonalLoop=1;jettySize=auto;html=1;exitX=1;exitY=0.5;exitDx=0;exitDy=0;strokeColor=light-dark(#006EAF, #000305);strokeWidth=2;align=center;verticalAlign=middle;fontFamily=Helvetica;fontSize=12;fontColor=#EEEEEE;fontStyle=1;labelBackgroundColor=none;startArrow=none;startFill=0;endArrow=ERmany;endFill=0;fillColor=#1ba1e2;startSize=12;endSize=12;" edge="1" parent="1" source="LPFi_fAzkbVzN_uqESW--284" target="LPFi_fAzkbVzN_uqESW--332">
          <mxGeometry relative="1" as="geometry" />
        </mxCell>
        <mxCell id="LPFi_fAzkbVzN_uqESW--439" value="Table" style="shape=table;startSize=30;container=1;collapsible=1;childLayout=tableLayout;fixedRows=1;rowLines=0;fontStyle=1;align=center;resizeLast=1;html=1;rounded=1;shadow=1;fillStyle=auto;strokeColor=#BAC8D3;verticalAlign=middle;fontFamily=Helvetica;fontSize=12;fontColor=#EEEEEE;labelBackgroundColor=none;fillColor=#09555B;" vertex="1" parent="1">
          <mxGeometry x="610" y="730" width="180" height="150" as="geometry" />
        </mxCell>
        <mxCell id="LPFi_fAzkbVzN_uqESW--440" value="" style="shape=tableRow;horizontal=0;startSize=0;swimlaneHead=0;swimlaneBody=0;fillColor=none;collapsible=0;dropTarget=0;points=[[0,0.5],[1,0.5]];portConstraint=eastwest;top=0;left=0;right=0;bottom=1;rounded=1;shadow=1;fillStyle=auto;strokeColor=#BAC8D3;align=center;verticalAlign=middle;fontFamily=Helvetica;fontSize=12;fontColor=#EEEEEE;fontStyle=1;labelBackgroundColor=none;" vertex="1" parent="LPFi_fAzkbVzN_uqESW--439">
          <mxGeometry y="30" width="180" height="30" as="geometry" />
        </mxCell>
        <mxCell id="LPFi_fAzkbVzN_uqESW--441" value="PK" style="shape=partialRectangle;connectable=0;fillColor=none;top=0;left=0;bottom=0;right=0;fontStyle=1;overflow=hidden;whiteSpace=wrap;html=1;rounded=1;shadow=1;fillStyle=auto;strokeColor=#BAC8D3;align=center;verticalAlign=middle;fontFamily=Helvetica;fontSize=12;fontColor=#EEEEEE;labelBackgroundColor=none;" vertex="1" parent="LPFi_fAzkbVzN_uqESW--440">
          <mxGeometry width="30" height="30" as="geometry">
            <mxRectangle width="30" height="30" as="alternateBounds" />
          </mxGeometry>
        </mxCell>
        <mxCell id="LPFi_fAzkbVzN_uqESW--442" value="UniqueID" style="shape=partialRectangle;connectable=0;fillColor=none;top=0;left=0;bottom=0;right=0;align=left;spacingLeft=6;fontStyle=5;overflow=hidden;whiteSpace=wrap;html=1;rounded=1;shadow=1;fillStyle=auto;strokeColor=#BAC8D3;verticalAlign=middle;fontFamily=Helvetica;fontSize=12;fontColor=#EEEEEE;labelBackgroundColor=none;" vertex="1" parent="LPFi_fAzkbVzN_uqESW--440">
          <mxGeometry x="30" width="150" height="30" as="geometry">
            <mxRectangle width="150" height="30" as="alternateBounds" />
          </mxGeometry>
        </mxCell>
        <mxCell id="LPFi_fAzkbVzN_uqESW--443" value="" style="shape=tableRow;horizontal=0;startSize=0;swimlaneHead=0;swimlaneBody=0;fillColor=none;collapsible=0;dropTarget=0;points=[[0,0.5],[1,0.5]];portConstraint=eastwest;top=0;left=0;right=0;bottom=0;rounded=1;shadow=1;fillStyle=auto;strokeColor=#BAC8D3;align=center;verticalAlign=middle;fontFamily=Helvetica;fontSize=12;fontColor=#EEEEEE;fontStyle=1;labelBackgroundColor=none;" vertex="1" parent="LPFi_fAzkbVzN_uqESW--439">
          <mxGeometry y="60" width="180" height="30" as="geometry" />
        </mxCell>
        <mxCell id="LPFi_fAzkbVzN_uqESW--444" value="" style="shape=partialRectangle;connectable=0;fillColor=none;top=0;left=0;bottom=0;right=0;editable=1;overflow=hidden;whiteSpace=wrap;html=1;rounded=1;shadow=1;fillStyle=auto;strokeColor=#BAC8D3;align=center;verticalAlign=middle;fontFamily=Helvetica;fontSize=12;fontColor=#EEEEEE;fontStyle=1;labelBackgroundColor=none;" vertex="1" parent="LPFi_fAzkbVzN_uqESW--443">
          <mxGeometry width="30" height="30" as="geometry">
            <mxRectangle width="30" height="30" as="alternateBounds" />
          </mxGeometry>
        </mxCell>
        <mxCell id="LPFi_fAzkbVzN_uqESW--445" value="Row 1" style="shape=partialRectangle;connectable=0;fillColor=none;top=0;left=0;bottom=0;right=0;align=left;spacingLeft=6;overflow=hidden;whiteSpace=wrap;html=1;rounded=1;shadow=1;fillStyle=auto;strokeColor=#BAC8D3;verticalAlign=middle;fontFamily=Helvetica;fontSize=12;fontColor=#EEEEEE;fontStyle=0;labelBackgroundColor=none;" vertex="1" parent="LPFi_fAzkbVzN_uqESW--443">
          <mxGeometry x="30" width="150" height="30" as="geometry">
            <mxRectangle width="150" height="30" as="alternateBounds" />
          </mxGeometry>
        </mxCell>
        <mxCell id="LPFi_fAzkbVzN_uqESW--446" value="" style="shape=tableRow;horizontal=0;startSize=0;swimlaneHead=0;swimlaneBody=0;fillColor=none;collapsible=0;dropTarget=0;points=[[0,0.5],[1,0.5]];portConstraint=eastwest;top=0;left=0;right=0;bottom=0;rounded=1;shadow=1;fillStyle=auto;strokeColor=#BAC8D3;align=center;verticalAlign=middle;fontFamily=Helvetica;fontSize=12;fontColor=#EEEEEE;fontStyle=1;labelBackgroundColor=none;" vertex="1" parent="LPFi_fAzkbVzN_uqESW--439">
          <mxGeometry y="90" width="180" height="30" as="geometry" />
        </mxCell>
        <mxCell id="LPFi_fAzkbVzN_uqESW--447" value="" style="shape=partialRectangle;connectable=0;fillColor=none;top=0;left=0;bottom=0;right=0;editable=1;overflow=hidden;whiteSpace=wrap;html=1;rounded=1;shadow=1;fillStyle=auto;strokeColor=#BAC8D3;align=center;verticalAlign=middle;fontFamily=Helvetica;fontSize=12;fontColor=#EEEEEE;fontStyle=1;labelBackgroundColor=none;" vertex="1" parent="LPFi_fAzkbVzN_uqESW--446">
          <mxGeometry width="30" height="30" as="geometry">
            <mxRectangle width="30" height="30" as="alternateBounds" />
          </mxGeometry>
        </mxCell>
        <mxCell id="LPFi_fAzkbVzN_uqESW--448" value="Row 2" style="shape=partialRectangle;connectable=0;fillColor=none;top=0;left=0;bottom=0;right=0;align=left;spacingLeft=6;overflow=hidden;whiteSpace=wrap;html=1;rounded=1;shadow=1;fillStyle=auto;strokeColor=#BAC8D3;verticalAlign=middle;fontFamily=Helvetica;fontSize=12;fontColor=#EEEEEE;fontStyle=0;labelBackgroundColor=none;" vertex="1" parent="LPFi_fAzkbVzN_uqESW--446">
          <mxGeometry x="30" width="150" height="30" as="geometry">
            <mxRectangle width="150" height="30" as="alternateBounds" />
          </mxGeometry>
        </mxCell>
        <mxCell id="LPFi_fAzkbVzN_uqESW--449" value="" style="shape=tableRow;horizontal=0;startSize=0;swimlaneHead=0;swimlaneBody=0;fillColor=none;collapsible=0;dropTarget=0;points=[[0,0.5],[1,0.5]];portConstraint=eastwest;top=0;left=0;right=0;bottom=0;rounded=1;shadow=1;fillStyle=auto;strokeColor=#BAC8D3;align=center;verticalAlign=middle;fontFamily=Helvetica;fontSize=12;fontColor=#EEEEEE;fontStyle=1;labelBackgroundColor=none;" vertex="1" parent="LPFi_fAzkbVzN_uqESW--439">
          <mxGeometry y="120" width="180" height="30" as="geometry" />
        </mxCell>
        <mxCell id="LPFi_fAzkbVzN_uqESW--450" value="" style="shape=partialRectangle;connectable=0;fillColor=none;top=0;left=0;bottom=0;right=0;editable=1;overflow=hidden;whiteSpace=wrap;html=1;rounded=1;shadow=1;fillStyle=auto;strokeColor=#BAC8D3;align=center;verticalAlign=middle;fontFamily=Helvetica;fontSize=12;fontColor=#EEEEEE;fontStyle=1;labelBackgroundColor=none;" vertex="1" parent="LPFi_fAzkbVzN_uqESW--449">
          <mxGeometry width="30" height="30" as="geometry">
            <mxRectangle width="30" height="30" as="alternateBounds" />
          </mxGeometry>
        </mxCell>
        <mxCell id="LPFi_fAzkbVzN_uqESW--451" value="Row 3" style="shape=partialRectangle;connectable=0;fillColor=none;top=0;left=0;bottom=0;right=0;align=left;spacingLeft=6;overflow=hidden;whiteSpace=wrap;html=1;rounded=1;shadow=1;fillStyle=auto;strokeColor=#BAC8D3;verticalAlign=middle;fontFamily=Helvetica;fontSize=12;fontColor=#EEEEEE;fontStyle=0;labelBackgroundColor=none;" vertex="1" parent="LPFi_fAzkbVzN_uqESW--449">
          <mxGeometry x="30" width="150" height="30" as="geometry">
            <mxRectangle width="150" height="30" as="alternateBounds" />
          </mxGeometry>
        </mxCell>
        <mxCell id="LPFi_fAzkbVzN_uqESW--452" value="customer" style="shape=table;startSize=30;container=1;collapsible=1;childLayout=tableLayout;fixedRows=1;rowLines=0;fontStyle=1;align=center;resizeLast=1;html=1;rounded=1;shadow=1;fillStyle=auto;strokeColor=#BAC8D3;verticalAlign=middle;fontFamily=Helvetica;fontSize=12;fontColor=#EEEEEE;labelBackgroundColor=none;fillColor=#09555B;" vertex="1" parent="1">
          <mxGeometry x="1730" y="580" width="179" height="150" as="geometry" />
        </mxCell>
        <mxCell id="LPFi_fAzkbVzN_uqESW--453" value="" style="shape=tableRow;horizontal=0;startSize=0;swimlaneHead=0;swimlaneBody=0;fillColor=none;collapsible=0;dropTarget=0;points=[[0,0.5],[1,0.5]];portConstraint=eastwest;top=0;left=0;right=0;bottom=1;rounded=1;shadow=1;fillStyle=auto;strokeColor=#BAC8D3;align=center;verticalAlign=middle;fontFamily=Helvetica;fontSize=12;fontColor=#EEEEEE;fontStyle=1;labelBackgroundColor=none;" vertex="1" parent="LPFi_fAzkbVzN_uqESW--452">
          <mxGeometry y="30" width="179" height="30" as="geometry" />
        </mxCell>
        <mxCell id="LPFi_fAzkbVzN_uqESW--454" value="PK" style="shape=partialRectangle;connectable=0;fillColor=none;top=0;left=0;bottom=0;right=0;fontStyle=1;overflow=hidden;whiteSpace=wrap;html=1;rounded=1;shadow=1;fillStyle=auto;strokeColor=#BAC8D3;align=center;verticalAlign=middle;fontFamily=Helvetica;fontSize=12;fontColor=#EEEEEE;labelBackgroundColor=none;" vertex="1" parent="LPFi_fAzkbVzN_uqESW--453">
          <mxGeometry width="40" height="30" as="geometry">
            <mxRectangle width="40" height="30" as="alternateBounds" />
          </mxGeometry>
        </mxCell>
        <mxCell id="LPFi_fAzkbVzN_uqESW--455" value="UniqueID" style="shape=partialRectangle;connectable=0;fillColor=none;top=0;left=0;bottom=0;right=0;align=left;spacingLeft=6;fontStyle=5;overflow=hidden;whiteSpace=wrap;html=1;rounded=1;shadow=1;fillStyle=auto;strokeColor=#BAC8D3;verticalAlign=middle;fontFamily=Helvetica;fontSize=12;fontColor=#EEEEEE;labelBackgroundColor=none;" vertex="1" parent="LPFi_fAzkbVzN_uqESW--453">
          <mxGeometry x="40" width="139" height="30" as="geometry">
            <mxRectangle width="139" height="30" as="alternateBounds" />
          </mxGeometry>
        </mxCell>
        <mxCell id="LPFi_fAzkbVzN_uqESW--456" value="" style="shape=tableRow;horizontal=0;startSize=0;swimlaneHead=0;swimlaneBody=0;fillColor=none;collapsible=0;dropTarget=0;points=[[0,0.5],[1,0.5]];portConstraint=eastwest;top=0;left=0;right=0;bottom=0;rounded=1;shadow=1;fillStyle=auto;strokeColor=#BAC8D3;align=center;verticalAlign=middle;fontFamily=Helvetica;fontSize=12;fontColor=#EEEEEE;fontStyle=1;labelBackgroundColor=none;" vertex="1" parent="LPFi_fAzkbVzN_uqESW--452">
          <mxGeometry y="60" width="179" height="30" as="geometry" />
        </mxCell>
        <mxCell id="LPFi_fAzkbVzN_uqESW--457" value="uuid" style="shape=partialRectangle;connectable=0;fillColor=none;top=0;left=0;bottom=0;right=0;editable=1;overflow=hidden;whiteSpace=wrap;html=1;rounded=1;shadow=1;fillStyle=auto;strokeColor=#BAC8D3;align=center;verticalAlign=middle;fontFamily=Helvetica;fontSize=12;fontColor=#EEEEEE;fontStyle=1;labelBackgroundColor=none;" vertex="1" parent="LPFi_fAzkbVzN_uqESW--456">
          <mxGeometry width="40" height="30" as="geometry">
            <mxRectangle width="40" height="30" as="alternateBounds" />
          </mxGeometry>
        </mxCell>
        <mxCell id="LPFi_fAzkbVzN_uqESW--458" value="user_id" style="shape=partialRectangle;connectable=0;fillColor=none;top=0;left=0;bottom=0;right=0;align=left;spacingLeft=6;overflow=hidden;whiteSpace=wrap;html=1;rounded=1;shadow=1;fillStyle=auto;strokeColor=#BAC8D3;verticalAlign=middle;fontFamily=Helvetica;fontSize=12;fontColor=#EEEEEE;fontStyle=1;labelBackgroundColor=none;" vertex="1" parent="LPFi_fAzkbVzN_uqESW--456">
          <mxGeometry x="40" width="139" height="30" as="geometry">
            <mxRectangle width="139" height="30" as="alternateBounds" />
          </mxGeometry>
        </mxCell>
        <mxCell id="LPFi_fAzkbVzN_uqESW--459" value="" style="shape=tableRow;horizontal=0;startSize=0;swimlaneHead=0;swimlaneBody=0;fillColor=none;collapsible=0;dropTarget=0;points=[[0,0.5],[1,0.5]];portConstraint=eastwest;top=0;left=0;right=0;bottom=0;rounded=1;shadow=1;fillStyle=auto;strokeColor=#BAC8D3;align=center;verticalAlign=middle;fontFamily=Helvetica;fontSize=12;fontColor=#EEEEEE;fontStyle=1;labelBackgroundColor=none;" vertex="1" parent="LPFi_fAzkbVzN_uqESW--452">
          <mxGeometry y="90" width="179" height="30" as="geometry" />
        </mxCell>
        <mxCell id="LPFi_fAzkbVzN_uqESW--460" value="" style="shape=partialRectangle;connectable=0;fillColor=none;top=0;left=0;bottom=0;right=0;editable=1;overflow=hidden;whiteSpace=wrap;html=1;rounded=1;shadow=1;fillStyle=auto;strokeColor=#BAC8D3;align=center;verticalAlign=middle;fontFamily=Helvetica;fontSize=12;fontColor=#EEEEEE;fontStyle=0;labelBackgroundColor=none;" vertex="1" parent="LPFi_fAzkbVzN_uqESW--459">
          <mxGeometry width="40" height="30" as="geometry">
            <mxRectangle width="40" height="30" as="alternateBounds" />
          </mxGeometry>
        </mxCell>
        <mxCell id="LPFi_fAzkbVzN_uqESW--461" value="Row 2" style="shape=partialRectangle;connectable=0;fillColor=none;top=0;left=0;bottom=0;right=0;align=left;spacingLeft=6;overflow=hidden;whiteSpace=wrap;html=1;rounded=1;shadow=1;fillStyle=auto;strokeColor=#BAC8D3;verticalAlign=middle;fontFamily=Helvetica;fontSize=12;fontColor=#EEEEEE;fontStyle=0;labelBackgroundColor=none;" vertex="1" parent="LPFi_fAzkbVzN_uqESW--459">
          <mxGeometry x="40" width="139" height="30" as="geometry">
            <mxRectangle width="139" height="30" as="alternateBounds" />
          </mxGeometry>
        </mxCell>
        <mxCell id="LPFi_fAzkbVzN_uqESW--462" value="" style="shape=tableRow;horizontal=0;startSize=0;swimlaneHead=0;swimlaneBody=0;fillColor=none;collapsible=0;dropTarget=0;points=[[0,0.5],[1,0.5]];portConstraint=eastwest;top=0;left=0;right=0;bottom=0;rounded=1;shadow=1;fillStyle=auto;strokeColor=#BAC8D3;align=center;verticalAlign=middle;fontFamily=Helvetica;fontSize=12;fontColor=#EEEEEE;fontStyle=1;labelBackgroundColor=none;" vertex="1" parent="LPFi_fAzkbVzN_uqESW--452">
          <mxGeometry y="120" width="179" height="30" as="geometry" />
        </mxCell>
        <mxCell id="LPFi_fAzkbVzN_uqESW--463" value="" style="shape=partialRectangle;connectable=0;fillColor=none;top=0;left=0;bottom=0;right=0;editable=1;overflow=hidden;whiteSpace=wrap;html=1;rounded=1;shadow=1;fillStyle=auto;strokeColor=#BAC8D3;align=center;verticalAlign=middle;fontFamily=Helvetica;fontSize=12;fontColor=#EEEEEE;fontStyle=0;labelBackgroundColor=none;" vertex="1" parent="LPFi_fAzkbVzN_uqESW--462">
          <mxGeometry width="40" height="30" as="geometry">
            <mxRectangle width="40" height="30" as="alternateBounds" />
          </mxGeometry>
        </mxCell>
        <mxCell id="LPFi_fAzkbVzN_uqESW--464" value="Row 3" style="shape=partialRectangle;connectable=0;fillColor=none;top=0;left=0;bottom=0;right=0;align=left;spacingLeft=6;overflow=hidden;whiteSpace=wrap;html=1;rounded=1;shadow=1;fillStyle=auto;strokeColor=#BAC8D3;verticalAlign=middle;fontFamily=Helvetica;fontSize=12;fontColor=#EEEEEE;fontStyle=0;labelBackgroundColor=none;" vertex="1" parent="LPFi_fAzkbVzN_uqESW--462">
          <mxGeometry x="40" width="139" height="30" as="geometry">
            <mxRectangle width="139" height="30" as="alternateBounds" />
          </mxGeometry>
        </mxCell>
        <mxCell id="LPFi_fAzkbVzN_uqESW--465" value="provider_partner" style="shape=table;startSize=30;container=1;collapsible=1;childLayout=tableLayout;fixedRows=1;rowLines=0;fontStyle=1;align=center;resizeLast=1;html=1;rounded=1;shadow=1;fillStyle=auto;strokeColor=#BAC8D3;verticalAlign=middle;fontFamily=Helvetica;fontSize=12;fontColor=#EEEEEE;labelBackgroundColor=none;fillColor=#09555B;" vertex="1" parent="1">
          <mxGeometry x="2570" y="580" width="180" height="150" as="geometry" />
        </mxCell>
        <mxCell id="LPFi_fAzkbVzN_uqESW--466" value="" style="shape=tableRow;horizontal=0;startSize=0;swimlaneHead=0;swimlaneBody=0;fillColor=none;collapsible=0;dropTarget=0;points=[[0,0.5],[1,0.5]];portConstraint=eastwest;top=0;left=0;right=0;bottom=1;rounded=1;shadow=1;fillStyle=auto;strokeColor=#BAC8D3;align=center;verticalAlign=middle;fontFamily=Helvetica;fontSize=12;fontColor=#EEEEEE;fontStyle=1;labelBackgroundColor=none;" vertex="1" parent="LPFi_fAzkbVzN_uqESW--465">
          <mxGeometry y="30" width="180" height="30" as="geometry" />
        </mxCell>
        <mxCell id="LPFi_fAzkbVzN_uqESW--467" value="PK" style="shape=partialRectangle;connectable=0;fillColor=none;top=0;left=0;bottom=0;right=0;fontStyle=1;overflow=hidden;whiteSpace=wrap;html=1;rounded=1;shadow=1;fillStyle=auto;strokeColor=#BAC8D3;align=center;verticalAlign=middle;fontFamily=Helvetica;fontSize=12;fontColor=#EEEEEE;labelBackgroundColor=none;" vertex="1" parent="LPFi_fAzkbVzN_uqESW--466">
          <mxGeometry width="40" height="30" as="geometry">
            <mxRectangle width="40" height="30" as="alternateBounds" />
          </mxGeometry>
        </mxCell>
        <mxCell id="LPFi_fAzkbVzN_uqESW--468" value="UniqueID" style="shape=partialRectangle;connectable=0;fillColor=none;top=0;left=0;bottom=0;right=0;align=left;spacingLeft=6;fontStyle=5;overflow=hidden;whiteSpace=wrap;html=1;rounded=1;shadow=1;fillStyle=auto;strokeColor=#BAC8D3;verticalAlign=middle;fontFamily=Helvetica;fontSize=12;fontColor=#EEEEEE;labelBackgroundColor=none;" vertex="1" parent="LPFi_fAzkbVzN_uqESW--466">
          <mxGeometry x="40" width="140" height="30" as="geometry">
            <mxRectangle width="140" height="30" as="alternateBounds" />
          </mxGeometry>
        </mxCell>
        <mxCell id="LPFi_fAzkbVzN_uqESW--469" value="" style="shape=tableRow;horizontal=0;startSize=0;swimlaneHead=0;swimlaneBody=0;fillColor=none;collapsible=0;dropTarget=0;points=[[0,0.5],[1,0.5]];portConstraint=eastwest;top=0;left=0;right=0;bottom=0;rounded=1;shadow=1;fillStyle=auto;strokeColor=#BAC8D3;align=center;verticalAlign=middle;fontFamily=Helvetica;fontSize=12;fontColor=#EEEEEE;fontStyle=1;labelBackgroundColor=none;" vertex="1" parent="LPFi_fAzkbVzN_uqESW--465">
          <mxGeometry y="60" width="180" height="30" as="geometry" />
        </mxCell>
        <mxCell id="LPFi_fAzkbVzN_uqESW--470" value="uuid" style="shape=partialRectangle;connectable=0;fillColor=none;top=0;left=0;bottom=0;right=0;editable=1;overflow=hidden;whiteSpace=wrap;html=1;rounded=1;shadow=1;fillStyle=auto;strokeColor=#BAC8D3;align=center;verticalAlign=middle;fontFamily=Helvetica;fontSize=12;fontColor=#EEEEEE;fontStyle=1;labelBackgroundColor=none;" vertex="1" parent="LPFi_fAzkbVzN_uqESW--469">
          <mxGeometry width="40" height="30" as="geometry">
            <mxRectangle width="40" height="30" as="alternateBounds" />
          </mxGeometry>
        </mxCell>
        <mxCell id="LPFi_fAzkbVzN_uqESW--471" value="provider_id" style="shape=partialRectangle;connectable=0;fillColor=none;top=0;left=0;bottom=0;right=0;align=left;spacingLeft=6;overflow=hidden;whiteSpace=wrap;html=1;rounded=1;shadow=1;fillStyle=auto;strokeColor=#BAC8D3;verticalAlign=middle;fontFamily=Helvetica;fontSize=12;fontColor=#EEEEEE;fontStyle=1;labelBackgroundColor=none;" vertex="1" parent="LPFi_fAzkbVzN_uqESW--469">
          <mxGeometry x="40" width="140" height="30" as="geometry">
            <mxRectangle width="140" height="30" as="alternateBounds" />
          </mxGeometry>
        </mxCell>
        <mxCell id="LPFi_fAzkbVzN_uqESW--472" value="" style="shape=tableRow;horizontal=0;startSize=0;swimlaneHead=0;swimlaneBody=0;fillColor=none;collapsible=0;dropTarget=0;points=[[0,0.5],[1,0.5]];portConstraint=eastwest;top=0;left=0;right=0;bottom=0;rounded=1;shadow=1;fillStyle=auto;strokeColor=#BAC8D3;align=center;verticalAlign=middle;fontFamily=Helvetica;fontSize=12;fontColor=#EEEEEE;fontStyle=1;labelBackgroundColor=none;" vertex="1" parent="LPFi_fAzkbVzN_uqESW--465">
          <mxGeometry y="90" width="180" height="30" as="geometry" />
        </mxCell>
        <mxCell id="LPFi_fAzkbVzN_uqESW--473" value="uuid" style="shape=partialRectangle;connectable=0;fillColor=none;top=0;left=0;bottom=0;right=0;editable=1;overflow=hidden;whiteSpace=wrap;html=1;rounded=1;shadow=1;fillStyle=auto;strokeColor=#BAC8D3;align=center;verticalAlign=middle;fontFamily=Helvetica;fontSize=12;fontColor=#EEEEEE;fontStyle=1;labelBackgroundColor=none;" vertex="1" parent="LPFi_fAzkbVzN_uqESW--472">
          <mxGeometry width="40" height="30" as="geometry">
            <mxRectangle width="40" height="30" as="alternateBounds" />
          </mxGeometry>
        </mxCell>
        <mxCell id="LPFi_fAzkbVzN_uqESW--474" value="partner_id" style="shape=partialRectangle;connectable=0;fillColor=none;top=0;left=0;bottom=0;right=0;align=left;spacingLeft=6;overflow=hidden;whiteSpace=wrap;html=1;rounded=1;shadow=1;fillStyle=auto;strokeColor=#BAC8D3;verticalAlign=middle;fontFamily=Helvetica;fontSize=12;fontColor=#EEEEEE;fontStyle=1;labelBackgroundColor=none;" vertex="1" parent="LPFi_fAzkbVzN_uqESW--472">
          <mxGeometry x="40" width="140" height="30" as="geometry">
            <mxRectangle width="140" height="30" as="alternateBounds" />
          </mxGeometry>
        </mxCell>
        <mxCell id="LPFi_fAzkbVzN_uqESW--475" value="" style="shape=tableRow;horizontal=0;startSize=0;swimlaneHead=0;swimlaneBody=0;fillColor=none;collapsible=0;dropTarget=0;points=[[0,0.5],[1,0.5]];portConstraint=eastwest;top=0;left=0;right=0;bottom=0;rounded=1;shadow=1;fillStyle=auto;strokeColor=#BAC8D3;align=center;verticalAlign=middle;fontFamily=Helvetica;fontSize=12;fontColor=#EEEEEE;fontStyle=1;labelBackgroundColor=none;" vertex="1" parent="LPFi_fAzkbVzN_uqESW--465">
          <mxGeometry y="120" width="180" height="30" as="geometry" />
        </mxCell>
        <mxCell id="LPFi_fAzkbVzN_uqESW--476" value="enum" style="shape=partialRectangle;connectable=0;fillColor=none;top=0;left=0;bottom=0;right=0;editable=1;overflow=hidden;whiteSpace=wrap;html=1;rounded=1;shadow=1;fillStyle=auto;strokeColor=#BAC8D3;align=center;verticalAlign=middle;fontFamily=Helvetica;fontSize=12;fontColor=#EEEEEE;fontStyle=0;labelBackgroundColor=none;" vertex="1" parent="LPFi_fAzkbVzN_uqESW--475">
          <mxGeometry width="40" height="30" as="geometry">
            <mxRectangle width="40" height="30" as="alternateBounds" />
          </mxGeometry>
        </mxCell>
        <mxCell id="LPFi_fAzkbVzN_uqESW--477" value="partnership_status" style="shape=partialRectangle;connectable=0;fillColor=none;top=0;left=0;bottom=0;right=0;align=left;spacingLeft=6;overflow=hidden;whiteSpace=wrap;html=1;rounded=1;shadow=1;fillStyle=auto;strokeColor=#BAC8D3;verticalAlign=middle;fontFamily=Helvetica;fontSize=12;fontColor=#EEEEEE;fontStyle=0;labelBackgroundColor=none;" vertex="1" parent="LPFi_fAzkbVzN_uqESW--475">
          <mxGeometry x="40" width="140" height="30" as="geometry">
            <mxRectangle width="140" height="30" as="alternateBounds" />
          </mxGeometry>
        </mxCell>
        <mxCell id="LPFi_fAzkbVzN_uqESW--478" value="company" style="shape=table;startSize=30;container=1;collapsible=1;childLayout=tableLayout;fixedRows=1;rowLines=0;fontStyle=1;align=center;resizeLast=1;html=1;rounded=1;shadow=1;fillStyle=auto;strokeColor=#BAC8D3;verticalAlign=middle;fontFamily=Helvetica;fontSize=12;fontColor=#EEEEEE;labelBackgroundColor=none;fillColor=#09555B;" vertex="1" parent="1">
          <mxGeometry x="2220" y="790" width="180" height="330" as="geometry" />
        </mxCell>
        <mxCell id="LPFi_fAzkbVzN_uqESW--479" value="" style="shape=tableRow;horizontal=0;startSize=0;swimlaneHead=0;swimlaneBody=0;fillColor=none;collapsible=0;dropTarget=0;points=[[0,0.5],[1,0.5]];portConstraint=eastwest;top=0;left=0;right=0;bottom=1;rounded=1;shadow=1;fillStyle=auto;strokeColor=#BAC8D3;align=center;verticalAlign=middle;fontFamily=Helvetica;fontSize=12;fontColor=#EEEEEE;fontStyle=1;labelBackgroundColor=none;" vertex="1" parent="LPFi_fAzkbVzN_uqESW--478">
          <mxGeometry y="30" width="180" height="30" as="geometry" />
        </mxCell>
        <mxCell id="LPFi_fAzkbVzN_uqESW--480" value="PK" style="shape=partialRectangle;connectable=0;fillColor=none;top=0;left=0;bottom=0;right=0;fontStyle=1;overflow=hidden;whiteSpace=wrap;html=1;rounded=1;shadow=1;fillStyle=auto;strokeColor=#BAC8D3;align=center;verticalAlign=middle;fontFamily=Helvetica;fontSize=12;fontColor=#EEEEEE;labelBackgroundColor=none;" vertex="1" parent="LPFi_fAzkbVzN_uqESW--479">
          <mxGeometry width="40" height="30" as="geometry">
            <mxRectangle width="40" height="30" as="alternateBounds" />
          </mxGeometry>
        </mxCell>
        <mxCell id="LPFi_fAzkbVzN_uqESW--481" value="UniqueID" style="shape=partialRectangle;connectable=0;fillColor=none;top=0;left=0;bottom=0;right=0;align=left;spacingLeft=6;fontStyle=5;overflow=hidden;whiteSpace=wrap;html=1;rounded=1;shadow=1;fillStyle=auto;strokeColor=#BAC8D3;verticalAlign=middle;fontFamily=Helvetica;fontSize=12;fontColor=#EEEEEE;labelBackgroundColor=none;" vertex="1" parent="LPFi_fAzkbVzN_uqESW--479">
          <mxGeometry x="40" width="140" height="30" as="geometry">
            <mxRectangle width="140" height="30" as="alternateBounds" />
          </mxGeometry>
        </mxCell>
        <mxCell id="LPFi_fAzkbVzN_uqESW--482" value="" style="shape=tableRow;horizontal=0;startSize=0;swimlaneHead=0;swimlaneBody=0;fillColor=none;collapsible=0;dropTarget=0;points=[[0,0.5],[1,0.5]];portConstraint=eastwest;top=0;left=0;right=0;bottom=0;rounded=1;shadow=1;fillStyle=auto;strokeColor=#BAC8D3;align=center;verticalAlign=middle;fontFamily=Helvetica;fontSize=12;fontColor=#EEEEEE;fontStyle=1;labelBackgroundColor=none;" vertex="1" parent="LPFi_fAzkbVzN_uqESW--478">
          <mxGeometry y="60" width="180" height="30" as="geometry" />
        </mxCell>
        <mxCell id="LPFi_fAzkbVzN_uqESW--483" value="char" style="shape=partialRectangle;connectable=0;fillColor=none;top=0;left=0;bottom=0;right=0;editable=1;overflow=hidden;whiteSpace=wrap;html=1;rounded=1;shadow=1;fillStyle=auto;strokeColor=#BAC8D3;align=center;verticalAlign=middle;fontFamily=Helvetica;fontSize=12;fontColor=#EEEEEE;fontStyle=0;labelBackgroundColor=none;" vertex="1" parent="LPFi_fAzkbVzN_uqESW--482">
          <mxGeometry width="40" height="30" as="geometry">
            <mxRectangle width="40" height="30" as="alternateBounds" />
          </mxGeometry>
        </mxCell>
        <mxCell id="LPFi_fAzkbVzN_uqESW--484" value="cnpj" style="shape=partialRectangle;connectable=0;fillColor=none;top=0;left=0;bottom=0;right=0;align=left;spacingLeft=6;overflow=hidden;whiteSpace=wrap;html=1;rounded=1;shadow=1;fillStyle=auto;strokeColor=#BAC8D3;verticalAlign=middle;fontFamily=Helvetica;fontSize=12;fontColor=#EEEEEE;fontStyle=0;labelBackgroundColor=none;" vertex="1" parent="LPFi_fAzkbVzN_uqESW--482">
          <mxGeometry x="40" width="140" height="30" as="geometry">
            <mxRectangle width="140" height="30" as="alternateBounds" />
          </mxGeometry>
        </mxCell>
        <mxCell id="LPFi_fAzkbVzN_uqESW--485" value="" style="shape=tableRow;horizontal=0;startSize=0;swimlaneHead=0;swimlaneBody=0;fillColor=none;collapsible=0;dropTarget=0;points=[[0,0.5],[1,0.5]];portConstraint=eastwest;top=0;left=0;right=0;bottom=0;rounded=1;shadow=1;fillStyle=auto;strokeColor=#BAC8D3;align=center;verticalAlign=middle;fontFamily=Helvetica;fontSize=12;fontColor=#EEEEEE;fontStyle=1;labelBackgroundColor=none;" vertex="1" parent="LPFi_fAzkbVzN_uqESW--478">
          <mxGeometry y="90" width="180" height="30" as="geometry" />
        </mxCell>
        <mxCell id="LPFi_fAzkbVzN_uqESW--486" value="" style="shape=partialRectangle;connectable=0;fillColor=none;top=0;left=0;bottom=0;right=0;editable=1;overflow=hidden;whiteSpace=wrap;html=1;rounded=1;shadow=1;fillStyle=auto;strokeColor=#BAC8D3;align=center;verticalAlign=middle;fontFamily=Helvetica;fontSize=12;fontColor=#EEEEEE;fontStyle=0;labelBackgroundColor=none;" vertex="1" parent="LPFi_fAzkbVzN_uqESW--485">
          <mxGeometry width="40" height="30" as="geometry">
            <mxRectangle width="40" height="30" as="alternateBounds" />
          </mxGeometry>
        </mxCell>
        <mxCell id="LPFi_fAzkbVzN_uqESW--487" value="legal_name" style="shape=partialRectangle;connectable=0;fillColor=none;top=0;left=0;bottom=0;right=0;align=left;spacingLeft=6;overflow=hidden;whiteSpace=wrap;html=1;rounded=1;shadow=1;fillStyle=auto;strokeColor=#BAC8D3;verticalAlign=middle;fontFamily=Helvetica;fontSize=12;fontColor=#EEEEEE;fontStyle=0;labelBackgroundColor=none;" vertex="1" parent="LPFi_fAzkbVzN_uqESW--485">
          <mxGeometry x="40" width="140" height="30" as="geometry">
            <mxRectangle width="140" height="30" as="alternateBounds" />
          </mxGeometry>
        </mxCell>
        <mxCell id="LPFi_fAzkbVzN_uqESW--488" value="" style="shape=tableRow;horizontal=0;startSize=0;swimlaneHead=0;swimlaneBody=0;fillColor=none;collapsible=0;dropTarget=0;points=[[0,0.5],[1,0.5]];portConstraint=eastwest;top=0;left=0;right=0;bottom=0;rounded=1;shadow=1;fillStyle=auto;strokeColor=#BAC8D3;align=center;verticalAlign=middle;fontFamily=Helvetica;fontSize=12;fontColor=#EEEEEE;fontStyle=1;labelBackgroundColor=none;" vertex="1" parent="LPFi_fAzkbVzN_uqESW--478">
          <mxGeometry y="120" width="180" height="30" as="geometry" />
        </mxCell>
        <mxCell id="LPFi_fAzkbVzN_uqESW--489" value="" style="shape=partialRectangle;connectable=0;fillColor=none;top=0;left=0;bottom=0;right=0;editable=1;overflow=hidden;whiteSpace=wrap;html=1;rounded=1;shadow=1;fillStyle=auto;strokeColor=#BAC8D3;align=center;verticalAlign=middle;fontFamily=Helvetica;fontSize=12;fontColor=#EEEEEE;fontStyle=0;labelBackgroundColor=none;" vertex="1" parent="LPFi_fAzkbVzN_uqESW--488">
          <mxGeometry width="40" height="30" as="geometry">
            <mxRectangle width="40" height="30" as="alternateBounds" />
          </mxGeometry>
        </mxCell>
        <mxCell id="LPFi_fAzkbVzN_uqESW--490" value="trade_name" style="shape=partialRectangle;connectable=0;fillColor=none;top=0;left=0;bottom=0;right=0;align=left;spacingLeft=6;overflow=hidden;whiteSpace=wrap;html=1;rounded=1;shadow=1;fillStyle=auto;strokeColor=#BAC8D3;verticalAlign=middle;fontFamily=Helvetica;fontSize=12;fontColor=#EEEEEE;fontStyle=0;labelBackgroundColor=none;" vertex="1" parent="LPFi_fAzkbVzN_uqESW--488">
          <mxGeometry x="40" width="140" height="30" as="geometry">
            <mxRectangle width="140" height="30" as="alternateBounds" />
          </mxGeometry>
        </mxCell>
        <mxCell id="LPFi_fAzkbVzN_uqESW--543" value="" style="shape=tableRow;horizontal=0;startSize=0;swimlaneHead=0;swimlaneBody=0;fillColor=none;collapsible=0;dropTarget=0;points=[[0,0.5],[1,0.5]];portConstraint=eastwest;top=0;left=0;right=0;bottom=0;rounded=1;shadow=1;fillStyle=auto;strokeColor=#BAC8D3;align=center;verticalAlign=middle;fontFamily=Helvetica;fontSize=12;fontColor=#EEEEEE;fontStyle=1;labelBackgroundColor=none;" vertex="1" parent="LPFi_fAzkbVzN_uqESW--478">
          <mxGeometry y="150" width="180" height="30" as="geometry" />
        </mxCell>
        <mxCell id="LPFi_fAzkbVzN_uqESW--544" value="" style="shape=partialRectangle;connectable=0;fillColor=none;top=0;left=0;bottom=0;right=0;editable=1;overflow=hidden;whiteSpace=wrap;html=1;rounded=1;shadow=1;fillStyle=auto;strokeColor=#BAC8D3;align=center;verticalAlign=middle;fontFamily=Helvetica;fontSize=12;fontColor=#EEEEEE;fontStyle=0;labelBackgroundColor=none;" vertex="1" parent="LPFi_fAzkbVzN_uqESW--543">
          <mxGeometry width="40" height="30" as="geometry">
            <mxRectangle width="40" height="30" as="alternateBounds" />
          </mxGeometry>
        </mxCell>
        <mxCell id="LPFi_fAzkbVzN_uqESW--545" value="company_type" style="shape=partialRectangle;connectable=0;fillColor=none;top=0;left=0;bottom=0;right=0;align=left;spacingLeft=6;overflow=hidden;whiteSpace=wrap;html=1;rounded=1;shadow=1;fillStyle=auto;strokeColor=#BAC8D3;verticalAlign=middle;fontFamily=Helvetica;fontSize=12;fontColor=#EEEEEE;fontStyle=0;labelBackgroundColor=none;" vertex="1" parent="LPFi_fAzkbVzN_uqESW--543">
          <mxGeometry x="40" width="140" height="30" as="geometry">
            <mxRectangle width="140" height="30" as="alternateBounds" />
          </mxGeometry>
        </mxCell>
        <mxCell id="LPFi_fAzkbVzN_uqESW--546" value="" style="shape=tableRow;horizontal=0;startSize=0;swimlaneHead=0;swimlaneBody=0;fillColor=none;collapsible=0;dropTarget=0;points=[[0,0.5],[1,0.5]];portConstraint=eastwest;top=0;left=0;right=0;bottom=0;rounded=1;shadow=1;fillStyle=auto;strokeColor=#BAC8D3;align=center;verticalAlign=middle;fontFamily=Helvetica;fontSize=12;fontColor=#EEEEEE;fontStyle=1;labelBackgroundColor=none;" vertex="1" parent="LPFi_fAzkbVzN_uqESW--478">
          <mxGeometry y="180" width="180" height="30" as="geometry" />
        </mxCell>
        <mxCell id="LPFi_fAzkbVzN_uqESW--547" value="" style="shape=partialRectangle;connectable=0;fillColor=none;top=0;left=0;bottom=0;right=0;editable=1;overflow=hidden;whiteSpace=wrap;html=1;rounded=1;shadow=1;fillStyle=auto;strokeColor=#BAC8D3;align=center;verticalAlign=middle;fontFamily=Helvetica;fontSize=12;fontColor=#EEEEEE;fontStyle=0;labelBackgroundColor=none;" vertex="1" parent="LPFi_fAzkbVzN_uqESW--546">
          <mxGeometry width="40" height="30" as="geometry">
            <mxRectangle width="40" height="30" as="alternateBounds" />
          </mxGeometry>
        </mxCell>
        <mxCell id="LPFi_fAzkbVzN_uqESW--548" value="state_registration" style="shape=partialRectangle;connectable=0;fillColor=none;top=0;left=0;bottom=0;right=0;align=left;spacingLeft=6;overflow=hidden;whiteSpace=wrap;html=1;rounded=1;shadow=1;fillStyle=auto;strokeColor=#BAC8D3;verticalAlign=middle;fontFamily=Helvetica;fontSize=12;fontColor=#EEEEEE;fontStyle=0;labelBackgroundColor=none;" vertex="1" parent="LPFi_fAzkbVzN_uqESW--546">
          <mxGeometry x="40" width="140" height="30" as="geometry">
            <mxRectangle width="140" height="30" as="alternateBounds" />
          </mxGeometry>
        </mxCell>
        <mxCell id="LPFi_fAzkbVzN_uqESW--555" value="" style="shape=tableRow;horizontal=0;startSize=0;swimlaneHead=0;swimlaneBody=0;fillColor=none;collapsible=0;dropTarget=0;points=[[0,0.5],[1,0.5]];portConstraint=eastwest;top=0;left=0;right=0;bottom=0;rounded=1;shadow=1;fillStyle=auto;strokeColor=#BAC8D3;align=center;verticalAlign=middle;fontFamily=Helvetica;fontSize=12;fontColor=#EEEEEE;fontStyle=1;labelBackgroundColor=none;" vertex="1" parent="LPFi_fAzkbVzN_uqESW--478">
          <mxGeometry y="210" width="180" height="30" as="geometry" />
        </mxCell>
        <mxCell id="LPFi_fAzkbVzN_uqESW--556" value="" style="shape=partialRectangle;connectable=0;fillColor=none;top=0;left=0;bottom=0;right=0;editable=1;overflow=hidden;whiteSpace=wrap;html=1;rounded=1;shadow=1;fillStyle=auto;strokeColor=#BAC8D3;align=center;verticalAlign=middle;fontFamily=Helvetica;fontSize=12;fontColor=#EEEEEE;fontStyle=0;labelBackgroundColor=none;" vertex="1" parent="LPFi_fAzkbVzN_uqESW--555">
          <mxGeometry width="40" height="30" as="geometry">
            <mxRectangle width="40" height="30" as="alternateBounds" />
          </mxGeometry>
        </mxCell>
        <mxCell id="LPFi_fAzkbVzN_uqESW--557" value="municipal_registration" style="shape=partialRectangle;connectable=0;fillColor=none;top=0;left=0;bottom=0;right=0;align=left;spacingLeft=6;overflow=hidden;whiteSpace=wrap;html=1;rounded=1;shadow=1;fillStyle=auto;strokeColor=#BAC8D3;verticalAlign=middle;fontFamily=Helvetica;fontSize=12;fontColor=#EEEEEE;fontStyle=0;labelBackgroundColor=none;" vertex="1" parent="LPFi_fAzkbVzN_uqESW--555">
          <mxGeometry x="40" width="140" height="30" as="geometry">
            <mxRectangle width="140" height="30" as="alternateBounds" />
          </mxGeometry>
        </mxCell>
        <mxCell id="LPFi_fAzkbVzN_uqESW--558" value="" style="shape=tableRow;horizontal=0;startSize=0;swimlaneHead=0;swimlaneBody=0;fillColor=none;collapsible=0;dropTarget=0;points=[[0,0.5],[1,0.5]];portConstraint=eastwest;top=0;left=0;right=0;bottom=0;rounded=1;shadow=1;fillStyle=auto;strokeColor=#BAC8D3;align=center;verticalAlign=middle;fontFamily=Helvetica;fontSize=12;fontColor=#EEEEEE;fontStyle=1;labelBackgroundColor=none;" vertex="1" parent="LPFi_fAzkbVzN_uqESW--478">
          <mxGeometry y="240" width="180" height="30" as="geometry" />
        </mxCell>
        <mxCell id="LPFi_fAzkbVzN_uqESW--559" value="" style="shape=partialRectangle;connectable=0;fillColor=none;top=0;left=0;bottom=0;right=0;editable=1;overflow=hidden;whiteSpace=wrap;html=1;rounded=1;shadow=1;fillStyle=auto;strokeColor=#BAC8D3;align=center;verticalAlign=middle;fontFamily=Helvetica;fontSize=12;fontColor=#EEEEEE;fontStyle=0;labelBackgroundColor=none;" vertex="1" parent="LPFi_fAzkbVzN_uqESW--558">
          <mxGeometry width="40" height="30" as="geometry">
            <mxRectangle width="40" height="30" as="alternateBounds" />
          </mxGeometry>
        </mxCell>
        <mxCell id="LPFi_fAzkbVzN_uqESW--560" value="tax_regime" style="shape=partialRectangle;connectable=0;fillColor=none;top=0;left=0;bottom=0;right=0;align=left;spacingLeft=6;overflow=hidden;whiteSpace=wrap;html=1;rounded=1;shadow=1;fillStyle=auto;strokeColor=#BAC8D3;verticalAlign=middle;fontFamily=Helvetica;fontSize=12;fontColor=#EEEEEE;fontStyle=0;labelBackgroundColor=none;" vertex="1" parent="LPFi_fAzkbVzN_uqESW--558">
          <mxGeometry x="40" width="140" height="30" as="geometry">
            <mxRectangle width="140" height="30" as="alternateBounds" />
          </mxGeometry>
        </mxCell>
        <mxCell id="LPFi_fAzkbVzN_uqESW--549" value="" style="shape=tableRow;horizontal=0;startSize=0;swimlaneHead=0;swimlaneBody=0;fillColor=none;collapsible=0;dropTarget=0;points=[[0,0.5],[1,0.5]];portConstraint=eastwest;top=0;left=0;right=0;bottom=0;rounded=1;shadow=1;fillStyle=auto;strokeColor=#BAC8D3;align=center;verticalAlign=middle;fontFamily=Helvetica;fontSize=12;fontColor=#EEEEEE;fontStyle=1;labelBackgroundColor=none;" vertex="1" parent="LPFi_fAzkbVzN_uqESW--478">
          <mxGeometry y="270" width="180" height="30" as="geometry" />
        </mxCell>
        <mxCell id="LPFi_fAzkbVzN_uqESW--550" value="uuid?" style="shape=partialRectangle;connectable=0;fillColor=none;top=0;left=0;bottom=0;right=0;editable=1;overflow=hidden;whiteSpace=wrap;html=1;rounded=1;shadow=1;fillStyle=auto;strokeColor=#BAC8D3;align=center;verticalAlign=middle;fontFamily=Helvetica;fontSize=12;fontColor=#EEEEEE;fontStyle=1;labelBackgroundColor=none;" vertex="1" parent="LPFi_fAzkbVzN_uqESW--549">
          <mxGeometry width="40" height="30" as="geometry">
            <mxRectangle width="40" height="30" as="alternateBounds" />
          </mxGeometry>
        </mxCell>
        <mxCell id="LPFi_fAzkbVzN_uqESW--551" value="parent_company_id" style="shape=partialRectangle;connectable=0;fillColor=none;top=0;left=0;bottom=0;right=0;align=left;spacingLeft=6;overflow=hidden;whiteSpace=wrap;html=1;rounded=1;shadow=1;fillStyle=auto;strokeColor=#BAC8D3;verticalAlign=middle;fontFamily=Helvetica;fontSize=12;fontColor=#EEEEEE;fontStyle=1;labelBackgroundColor=none;" vertex="1" parent="LPFi_fAzkbVzN_uqESW--549">
          <mxGeometry x="40" width="140" height="30" as="geometry">
            <mxRectangle width="140" height="30" as="alternateBounds" />
          </mxGeometry>
        </mxCell>
        <mxCell id="LPFi_fAzkbVzN_uqESW--552" value="" style="shape=tableRow;horizontal=0;startSize=0;swimlaneHead=0;swimlaneBody=0;fillColor=none;collapsible=0;dropTarget=0;points=[[0,0.5],[1,0.5]];portConstraint=eastwest;top=0;left=0;right=0;bottom=0;rounded=1;shadow=1;fillStyle=auto;strokeColor=#BAC8D3;align=center;verticalAlign=middle;fontFamily=Helvetica;fontSize=12;fontColor=#EEEEEE;fontStyle=1;labelBackgroundColor=none;" vertex="1" parent="LPFi_fAzkbVzN_uqESW--478">
          <mxGeometry y="300" width="180" height="30" as="geometry" />
        </mxCell>
        <mxCell id="LPFi_fAzkbVzN_uqESW--553" value="uuid" style="shape=partialRectangle;connectable=0;fillColor=none;top=0;left=0;bottom=0;right=0;editable=1;overflow=hidden;whiteSpace=wrap;html=1;rounded=1;shadow=1;fillStyle=auto;strokeColor=#BAC8D3;align=center;verticalAlign=middle;fontFamily=Helvetica;fontSize=12;fontColor=#EEEEEE;fontStyle=1;labelBackgroundColor=none;" vertex="1" parent="LPFi_fAzkbVzN_uqESW--552">
          <mxGeometry width="40" height="30" as="geometry">
            <mxRectangle width="40" height="30" as="alternateBounds" />
          </mxGeometry>
        </mxCell>
        <mxCell id="LPFi_fAzkbVzN_uqESW--554" value="address_id" style="shape=partialRectangle;connectable=0;fillColor=none;top=0;left=0;bottom=0;right=0;align=left;spacingLeft=6;overflow=hidden;whiteSpace=wrap;html=1;rounded=1;shadow=1;fillStyle=auto;strokeColor=#BAC8D3;verticalAlign=middle;fontFamily=Helvetica;fontSize=12;fontColor=#EEEEEE;fontStyle=1;labelBackgroundColor=none;" vertex="1" parent="LPFi_fAzkbVzN_uqESW--552">
          <mxGeometry x="40" width="140" height="30" as="geometry">
            <mxRectangle width="140" height="30" as="alternateBounds" />
          </mxGeometry>
        </mxCell>
        <mxCell id="LPFi_fAzkbVzN_uqESW--491" value="address" style="shape=table;startSize=30;container=1;collapsible=1;childLayout=tableLayout;fixedRows=1;rowLines=0;fontStyle=1;align=center;resizeLast=1;html=1;rounded=1;shadow=1;fillStyle=auto;strokeColor=#BAC8D3;verticalAlign=middle;fontFamily=Helvetica;fontSize=12;fontColor=#EEEEEE;labelBackgroundColor=none;fillColor=#09555B;" vertex="1" parent="1">
          <mxGeometry x="2560" y="910" width="180" height="210" as="geometry" />
        </mxCell>
        <mxCell id="LPFi_fAzkbVzN_uqESW--492" value="" style="shape=tableRow;horizontal=0;startSize=0;swimlaneHead=0;swimlaneBody=0;fillColor=none;collapsible=0;dropTarget=0;points=[[0,0.5],[1,0.5]];portConstraint=eastwest;top=0;left=0;right=0;bottom=1;rounded=1;shadow=1;fillStyle=auto;strokeColor=#BAC8D3;align=center;verticalAlign=middle;fontFamily=Helvetica;fontSize=12;fontColor=#EEEEEE;fontStyle=1;labelBackgroundColor=none;" vertex="1" parent="LPFi_fAzkbVzN_uqESW--491">
          <mxGeometry y="30" width="180" height="30" as="geometry" />
        </mxCell>
        <mxCell id="LPFi_fAzkbVzN_uqESW--493" value="PK" style="shape=partialRectangle;connectable=0;fillColor=none;top=0;left=0;bottom=0;right=0;fontStyle=1;overflow=hidden;whiteSpace=wrap;html=1;rounded=1;shadow=1;fillStyle=auto;strokeColor=#BAC8D3;align=center;verticalAlign=middle;fontFamily=Helvetica;fontSize=12;fontColor=#EEEEEE;labelBackgroundColor=none;" vertex="1" parent="LPFi_fAzkbVzN_uqESW--492">
          <mxGeometry width="50" height="30" as="geometry">
            <mxRectangle width="50" height="30" as="alternateBounds" />
          </mxGeometry>
        </mxCell>
        <mxCell id="LPFi_fAzkbVzN_uqESW--494" value="UniqueID" style="shape=partialRectangle;connectable=0;fillColor=none;top=0;left=0;bottom=0;right=0;align=left;spacingLeft=6;fontStyle=5;overflow=hidden;whiteSpace=wrap;html=1;rounded=1;shadow=1;fillStyle=auto;strokeColor=#BAC8D3;verticalAlign=middle;fontFamily=Helvetica;fontSize=12;fontColor=#EEEEEE;labelBackgroundColor=none;" vertex="1" parent="LPFi_fAzkbVzN_uqESW--492">
          <mxGeometry x="50" width="130" height="30" as="geometry">
            <mxRectangle width="130" height="30" as="alternateBounds" />
          </mxGeometry>
        </mxCell>
        <mxCell id="LPFi_fAzkbVzN_uqESW--495" value="" style="shape=tableRow;horizontal=0;startSize=0;swimlaneHead=0;swimlaneBody=0;fillColor=none;collapsible=0;dropTarget=0;points=[[0,0.5],[1,0.5]];portConstraint=eastwest;top=0;left=0;right=0;bottom=0;rounded=1;shadow=1;fillStyle=auto;strokeColor=#BAC8D3;align=center;verticalAlign=middle;fontFamily=Helvetica;fontSize=12;fontColor=#EEEEEE;fontStyle=1;labelBackgroundColor=none;" vertex="1" parent="LPFi_fAzkbVzN_uqESW--491">
          <mxGeometry y="60" width="180" height="30" as="geometry" />
        </mxCell>
        <mxCell id="LPFi_fAzkbVzN_uqESW--496" value="char" style="shape=partialRectangle;connectable=0;fillColor=none;top=0;left=0;bottom=0;right=0;editable=1;overflow=hidden;whiteSpace=wrap;html=1;rounded=1;shadow=1;fillStyle=auto;strokeColor=#BAC8D3;align=center;verticalAlign=middle;fontFamily=Helvetica;fontSize=12;fontColor=#EEEEEE;fontStyle=0;labelBackgroundColor=none;" vertex="1" parent="LPFi_fAzkbVzN_uqESW--495">
          <mxGeometry width="50" height="30" as="geometry">
            <mxRectangle width="50" height="30" as="alternateBounds" />
          </mxGeometry>
        </mxCell>
        <mxCell id="LPFi_fAzkbVzN_uqESW--497" value="zip_code" style="shape=partialRectangle;connectable=0;fillColor=none;top=0;left=0;bottom=0;right=0;align=left;spacingLeft=6;overflow=hidden;whiteSpace=wrap;html=1;rounded=1;shadow=1;fillStyle=auto;strokeColor=#BAC8D3;verticalAlign=middle;fontFamily=Helvetica;fontSize=12;fontColor=#EEEEEE;fontStyle=0;labelBackgroundColor=none;" vertex="1" parent="LPFi_fAzkbVzN_uqESW--495">
          <mxGeometry x="50" width="130" height="30" as="geometry">
            <mxRectangle width="130" height="30" as="alternateBounds" />
          </mxGeometry>
        </mxCell>
        <mxCell id="LPFi_fAzkbVzN_uqESW--498" value="" style="shape=tableRow;horizontal=0;startSize=0;swimlaneHead=0;swimlaneBody=0;fillColor=none;collapsible=0;dropTarget=0;points=[[0,0.5],[1,0.5]];portConstraint=eastwest;top=0;left=0;right=0;bottom=0;rounded=1;shadow=1;fillStyle=auto;strokeColor=#BAC8D3;align=center;verticalAlign=middle;fontFamily=Helvetica;fontSize=12;fontColor=#EEEEEE;fontStyle=1;labelBackgroundColor=none;" vertex="1" parent="LPFi_fAzkbVzN_uqESW--491">
          <mxGeometry y="90" width="180" height="30" as="geometry" />
        </mxCell>
        <mxCell id="LPFi_fAzkbVzN_uqESW--499" value="" style="shape=partialRectangle;connectable=0;fillColor=none;top=0;left=0;bottom=0;right=0;editable=1;overflow=hidden;whiteSpace=wrap;html=1;rounded=1;shadow=1;fillStyle=auto;strokeColor=#BAC8D3;align=center;verticalAlign=middle;fontFamily=Helvetica;fontSize=12;fontColor=#EEEEEE;fontStyle=0;labelBackgroundColor=none;" vertex="1" parent="LPFi_fAzkbVzN_uqESW--498">
          <mxGeometry width="50" height="30" as="geometry">
            <mxRectangle width="50" height="30" as="alternateBounds" />
          </mxGeometry>
        </mxCell>
        <mxCell id="LPFi_fAzkbVzN_uqESW--500" value="street" style="shape=partialRectangle;connectable=0;fillColor=none;top=0;left=0;bottom=0;right=0;align=left;spacingLeft=6;overflow=hidden;whiteSpace=wrap;html=1;rounded=1;shadow=1;fillStyle=auto;strokeColor=#BAC8D3;verticalAlign=middle;fontFamily=Helvetica;fontSize=12;fontColor=#EEEEEE;fontStyle=0;labelBackgroundColor=none;" vertex="1" parent="LPFi_fAzkbVzN_uqESW--498">
          <mxGeometry x="50" width="130" height="30" as="geometry">
            <mxRectangle width="130" height="30" as="alternateBounds" />
          </mxGeometry>
        </mxCell>
        <mxCell id="LPFi_fAzkbVzN_uqESW--501" value="" style="shape=tableRow;horizontal=0;startSize=0;swimlaneHead=0;swimlaneBody=0;fillColor=none;collapsible=0;dropTarget=0;points=[[0,0.5],[1,0.5]];portConstraint=eastwest;top=0;left=0;right=0;bottom=0;rounded=1;shadow=1;fillStyle=auto;strokeColor=#BAC8D3;align=center;verticalAlign=middle;fontFamily=Helvetica;fontSize=12;fontColor=#EEEEEE;fontStyle=1;labelBackgroundColor=none;" vertex="1" parent="LPFi_fAzkbVzN_uqESW--491">
          <mxGeometry y="120" width="180" height="30" as="geometry" />
        </mxCell>
        <mxCell id="LPFi_fAzkbVzN_uqESW--502" value="" style="shape=partialRectangle;connectable=0;fillColor=none;top=0;left=0;bottom=0;right=0;editable=1;overflow=hidden;whiteSpace=wrap;html=1;rounded=1;shadow=1;fillStyle=auto;strokeColor=#BAC8D3;align=center;verticalAlign=middle;fontFamily=Helvetica;fontSize=12;fontColor=#EEEEEE;fontStyle=0;labelBackgroundColor=none;" vertex="1" parent="LPFi_fAzkbVzN_uqESW--501">
          <mxGeometry width="50" height="30" as="geometry">
            <mxRectangle width="50" height="30" as="alternateBounds" />
          </mxGeometry>
        </mxCell>
        <mxCell id="LPFi_fAzkbVzN_uqESW--503" value="state" style="shape=partialRectangle;connectable=0;fillColor=none;top=0;left=0;bottom=0;right=0;align=left;spacingLeft=6;overflow=hidden;whiteSpace=wrap;html=1;rounded=1;shadow=1;fillStyle=auto;strokeColor=#BAC8D3;verticalAlign=middle;fontFamily=Helvetica;fontSize=12;fontColor=#EEEEEE;fontStyle=0;labelBackgroundColor=none;" vertex="1" parent="LPFi_fAzkbVzN_uqESW--501">
          <mxGeometry x="50" width="130" height="30" as="geometry">
            <mxRectangle width="130" height="30" as="alternateBounds" />
          </mxGeometry>
        </mxCell>
        <mxCell id="LPFi_fAzkbVzN_uqESW--597" value="" style="shape=tableRow;horizontal=0;startSize=0;swimlaneHead=0;swimlaneBody=0;fillColor=none;collapsible=0;dropTarget=0;points=[[0,0.5],[1,0.5]];portConstraint=eastwest;top=0;left=0;right=0;bottom=0;rounded=1;shadow=1;fillStyle=auto;strokeColor=#BAC8D3;align=center;verticalAlign=middle;fontFamily=Helvetica;fontSize=12;fontColor=#EEEEEE;fontStyle=1;labelBackgroundColor=none;" vertex="1" parent="LPFi_fAzkbVzN_uqESW--491">
          <mxGeometry y="150" width="180" height="30" as="geometry" />
        </mxCell>
        <mxCell id="LPFi_fAzkbVzN_uqESW--598" value="" style="shape=partialRectangle;connectable=0;fillColor=none;top=0;left=0;bottom=0;right=0;editable=1;overflow=hidden;whiteSpace=wrap;html=1;rounded=1;shadow=1;fillStyle=auto;strokeColor=#BAC8D3;align=center;verticalAlign=middle;fontFamily=Helvetica;fontSize=12;fontColor=#EEEEEE;fontStyle=0;labelBackgroundColor=none;" vertex="1" parent="LPFi_fAzkbVzN_uqESW--597">
          <mxGeometry width="50" height="30" as="geometry">
            <mxRectangle width="50" height="30" as="alternateBounds" />
          </mxGeometry>
        </mxCell>
        <mxCell id="LPFi_fAzkbVzN_uqESW--599" value="city" style="shape=partialRectangle;connectable=0;fillColor=none;top=0;left=0;bottom=0;right=0;align=left;spacingLeft=6;overflow=hidden;whiteSpace=wrap;html=1;rounded=1;shadow=1;fillStyle=auto;strokeColor=#BAC8D3;verticalAlign=middle;fontFamily=Helvetica;fontSize=12;fontColor=#EEEEEE;fontStyle=0;labelBackgroundColor=none;" vertex="1" parent="LPFi_fAzkbVzN_uqESW--597">
          <mxGeometry x="50" width="130" height="30" as="geometry">
            <mxRectangle width="130" height="30" as="alternateBounds" />
          </mxGeometry>
        </mxCell>
        <mxCell id="LPFi_fAzkbVzN_uqESW--600" value="" style="shape=tableRow;horizontal=0;startSize=0;swimlaneHead=0;swimlaneBody=0;fillColor=none;collapsible=0;dropTarget=0;points=[[0,0.5],[1,0.5]];portConstraint=eastwest;top=0;left=0;right=0;bottom=0;rounded=1;shadow=1;fillStyle=auto;strokeColor=#BAC8D3;align=center;verticalAlign=middle;fontFamily=Helvetica;fontSize=12;fontColor=#EEEEEE;fontStyle=1;labelBackgroundColor=none;" vertex="1" parent="LPFi_fAzkbVzN_uqESW--491">
          <mxGeometry y="180" width="180" height="30" as="geometry" />
        </mxCell>
        <mxCell id="LPFi_fAzkbVzN_uqESW--601" value="varchar" style="shape=partialRectangle;connectable=0;fillColor=none;top=0;left=0;bottom=0;right=0;editable=1;overflow=hidden;whiteSpace=wrap;html=1;rounded=1;shadow=1;fillStyle=auto;strokeColor=#BAC8D3;align=center;verticalAlign=middle;fontFamily=Helvetica;fontSize=12;fontColor=#EEEEEE;fontStyle=0;labelBackgroundColor=none;" vertex="1" parent="LPFi_fAzkbVzN_uqESW--600">
          <mxGeometry width="50" height="30" as="geometry">
            <mxRectangle width="50" height="30" as="alternateBounds" />
          </mxGeometry>
        </mxCell>
        <mxCell id="LPFi_fAzkbVzN_uqESW--602" value="neighborhood" style="shape=partialRectangle;connectable=0;fillColor=none;top=0;left=0;bottom=0;right=0;align=left;spacingLeft=6;overflow=hidden;whiteSpace=wrap;html=1;rounded=1;shadow=1;fillStyle=auto;strokeColor=#BAC8D3;verticalAlign=middle;fontFamily=Helvetica;fontSize=12;fontColor=#EEEEEE;fontStyle=0;labelBackgroundColor=none;" vertex="1" parent="LPFi_fAzkbVzN_uqESW--600">
          <mxGeometry x="50" width="130" height="30" as="geometry">
            <mxRectangle width="130" height="30" as="alternateBounds" />
          </mxGeometry>
        </mxCell>
        <mxCell id="LPFi_fAzkbVzN_uqESW--504" value="documents_ehs" style="shape=table;startSize=30;container=1;collapsible=1;childLayout=tableLayout;fixedRows=1;rowLines=0;fontStyle=1;align=center;resizeLast=1;html=1;rounded=1;shadow=1;fillStyle=auto;strokeColor=#BAC8D3;verticalAlign=middle;fontFamily=Helvetica;fontSize=12;fontColor=#EEEEEE;labelBackgroundColor=none;fillColor=#09555B;" vertex="1" parent="1">
          <mxGeometry x="1410" y="570" width="180" height="90" as="geometry" />
        </mxCell>
        <mxCell id="LPFi_fAzkbVzN_uqESW--505" value="" style="shape=tableRow;horizontal=0;startSize=0;swimlaneHead=0;swimlaneBody=0;fillColor=none;collapsible=0;dropTarget=0;points=[[0,0.5],[1,0.5]];portConstraint=eastwest;top=0;left=0;right=0;bottom=1;rounded=1;shadow=1;fillStyle=auto;strokeColor=#BAC8D3;align=center;verticalAlign=middle;fontFamily=Helvetica;fontSize=12;fontColor=#EEEEEE;fontStyle=1;labelBackgroundColor=none;" vertex="1" parent="LPFi_fAzkbVzN_uqESW--504">
          <mxGeometry y="30" width="180" height="30" as="geometry" />
        </mxCell>
        <mxCell id="LPFi_fAzkbVzN_uqESW--506" value="PK" style="shape=partialRectangle;connectable=0;fillColor=none;top=0;left=0;bottom=0;right=0;fontStyle=1;overflow=hidden;whiteSpace=wrap;html=1;rounded=1;shadow=1;fillStyle=auto;strokeColor=#BAC8D3;align=center;verticalAlign=middle;fontFamily=Helvetica;fontSize=12;fontColor=#EEEEEE;labelBackgroundColor=none;" vertex="1" parent="LPFi_fAzkbVzN_uqESW--505">
          <mxGeometry width="30" height="30" as="geometry">
            <mxRectangle width="30" height="30" as="alternateBounds" />
          </mxGeometry>
        </mxCell>
        <mxCell id="LPFi_fAzkbVzN_uqESW--507" value="UniqueID" style="shape=partialRectangle;connectable=0;fillColor=none;top=0;left=0;bottom=0;right=0;align=left;spacingLeft=6;fontStyle=5;overflow=hidden;whiteSpace=wrap;html=1;rounded=1;shadow=1;fillStyle=auto;strokeColor=#BAC8D3;verticalAlign=middle;fontFamily=Helvetica;fontSize=12;fontColor=#EEEEEE;labelBackgroundColor=none;" vertex="1" parent="LPFi_fAzkbVzN_uqESW--505">
          <mxGeometry x="30" width="150" height="30" as="geometry">
            <mxRectangle width="150" height="30" as="alternateBounds" />
          </mxGeometry>
        </mxCell>
        <mxCell id="LPFi_fAzkbVzN_uqESW--511" value="" style="shape=tableRow;horizontal=0;startSize=0;swimlaneHead=0;swimlaneBody=0;fillColor=none;collapsible=0;dropTarget=0;points=[[0,0.5],[1,0.5]];portConstraint=eastwest;top=0;left=0;right=0;bottom=0;rounded=1;shadow=1;fillStyle=auto;strokeColor=#BAC8D3;align=center;verticalAlign=middle;fontFamily=Helvetica;fontSize=12;fontColor=#EEEEEE;fontStyle=1;labelBackgroundColor=none;" vertex="1" parent="LPFi_fAzkbVzN_uqESW--504">
          <mxGeometry y="60" width="180" height="30" as="geometry" />
        </mxCell>
        <mxCell id="LPFi_fAzkbVzN_uqESW--512" value="" style="shape=partialRectangle;connectable=0;fillColor=none;top=0;left=0;bottom=0;right=0;editable=1;overflow=hidden;whiteSpace=wrap;html=1;rounded=1;shadow=1;fillStyle=auto;strokeColor=#BAC8D3;align=center;verticalAlign=middle;fontFamily=Helvetica;fontSize=12;fontColor=#EEEEEE;fontStyle=1;labelBackgroundColor=none;" vertex="1" parent="LPFi_fAzkbVzN_uqESW--511">
          <mxGeometry width="30" height="30" as="geometry">
            <mxRectangle width="30" height="30" as="alternateBounds" />
          </mxGeometry>
        </mxCell>
        <mxCell id="LPFi_fAzkbVzN_uqESW--513" value="Row 2" style="shape=partialRectangle;connectable=0;fillColor=none;top=0;left=0;bottom=0;right=0;align=left;spacingLeft=6;overflow=hidden;whiteSpace=wrap;html=1;rounded=1;shadow=1;fillStyle=auto;strokeColor=#BAC8D3;verticalAlign=middle;fontFamily=Helvetica;fontSize=12;fontColor=#EEEEEE;fontStyle=0;labelBackgroundColor=none;" vertex="1" parent="LPFi_fAzkbVzN_uqESW--511">
          <mxGeometry x="30" width="150" height="30" as="geometry">
            <mxRectangle width="150" height="30" as="alternateBounds" />
          </mxGeometry>
        </mxCell>
        <mxCell id="LPFi_fAzkbVzN_uqESW--517" value="service_order" style="shape=table;startSize=30;container=1;collapsible=1;childLayout=tableLayout;fixedRows=1;rowLines=0;fontStyle=1;align=center;resizeLast=1;html=1;rounded=1;shadow=1;fillStyle=auto;strokeColor=#BAC8D3;verticalAlign=middle;fontFamily=Helvetica;fontSize=12;fontColor=#EEEEEE;labelBackgroundColor=none;fillColor=#09555B;" vertex="1" parent="1">
          <mxGeometry x="1830" y="880" width="180" height="180" as="geometry" />
        </mxCell>
        <mxCell id="LPFi_fAzkbVzN_uqESW--518" value="" style="shape=tableRow;horizontal=0;startSize=0;swimlaneHead=0;swimlaneBody=0;fillColor=none;collapsible=0;dropTarget=0;points=[[0,0.5],[1,0.5]];portConstraint=eastwest;top=0;left=0;right=0;bottom=1;rounded=1;shadow=1;fillStyle=auto;strokeColor=#BAC8D3;align=center;verticalAlign=middle;fontFamily=Helvetica;fontSize=12;fontColor=#EEEEEE;fontStyle=1;labelBackgroundColor=none;" vertex="1" parent="LPFi_fAzkbVzN_uqESW--517">
          <mxGeometry y="30" width="180" height="30" as="geometry" />
        </mxCell>
        <mxCell id="LPFi_fAzkbVzN_uqESW--519" value="PK" style="shape=partialRectangle;connectable=0;fillColor=none;top=0;left=0;bottom=0;right=0;fontStyle=1;overflow=hidden;whiteSpace=wrap;html=1;rounded=1;shadow=1;fillStyle=auto;strokeColor=#BAC8D3;align=center;verticalAlign=middle;fontFamily=Helvetica;fontSize=12;fontColor=#EEEEEE;labelBackgroundColor=none;" vertex="1" parent="LPFi_fAzkbVzN_uqESW--518">
          <mxGeometry width="46" height="30" as="geometry">
            <mxRectangle width="46" height="30" as="alternateBounds" />
          </mxGeometry>
        </mxCell>
        <mxCell id="LPFi_fAzkbVzN_uqESW--520" value="UniqueID" style="shape=partialRectangle;connectable=0;fillColor=none;top=0;left=0;bottom=0;right=0;align=left;spacingLeft=6;fontStyle=5;overflow=hidden;whiteSpace=wrap;html=1;rounded=1;shadow=1;fillStyle=auto;strokeColor=#BAC8D3;verticalAlign=middle;fontFamily=Helvetica;fontSize=12;fontColor=#EEEEEE;labelBackgroundColor=none;" vertex="1" parent="LPFi_fAzkbVzN_uqESW--518">
          <mxGeometry x="46" width="134" height="30" as="geometry">
            <mxRectangle width="134" height="30" as="alternateBounds" />
          </mxGeometry>
        </mxCell>
        <mxCell id="LPFi_fAzkbVzN_uqESW--521" value="" style="shape=tableRow;horizontal=0;startSize=0;swimlaneHead=0;swimlaneBody=0;fillColor=none;collapsible=0;dropTarget=0;points=[[0,0.5],[1,0.5]];portConstraint=eastwest;top=0;left=0;right=0;bottom=0;rounded=1;shadow=1;fillStyle=auto;strokeColor=#BAC8D3;align=center;verticalAlign=middle;fontFamily=Helvetica;fontSize=12;fontColor=#EEEEEE;fontStyle=1;labelBackgroundColor=none;" vertex="1" parent="LPFi_fAzkbVzN_uqESW--517">
          <mxGeometry y="60" width="180" height="30" as="geometry" />
        </mxCell>
        <mxCell id="LPFi_fAzkbVzN_uqESW--522" value="uuid" style="shape=partialRectangle;connectable=0;fillColor=none;top=0;left=0;bottom=0;right=0;editable=1;overflow=hidden;whiteSpace=wrap;html=1;rounded=1;shadow=1;fillStyle=auto;strokeColor=#BAC8D3;align=center;verticalAlign=middle;fontFamily=Helvetica;fontSize=12;fontColor=#EEEEEE;fontStyle=1;labelBackgroundColor=none;" vertex="1" parent="LPFi_fAzkbVzN_uqESW--521">
          <mxGeometry width="46" height="30" as="geometry">
            <mxRectangle width="46" height="30" as="alternateBounds" />
          </mxGeometry>
        </mxCell>
        <mxCell id="LPFi_fAzkbVzN_uqESW--523" value="customer_id" style="shape=partialRectangle;connectable=0;fillColor=none;top=0;left=0;bottom=0;right=0;align=left;spacingLeft=6;overflow=hidden;whiteSpace=wrap;html=1;rounded=1;shadow=1;fillStyle=auto;strokeColor=#BAC8D3;verticalAlign=middle;fontFamily=Helvetica;fontSize=12;fontColor=#EEEEEE;fontStyle=1;labelBackgroundColor=none;" vertex="1" parent="LPFi_fAzkbVzN_uqESW--521">
          <mxGeometry x="46" width="134" height="30" as="geometry">
            <mxRectangle width="134" height="30" as="alternateBounds" />
          </mxGeometry>
        </mxCell>
        <mxCell id="LPFi_fAzkbVzN_uqESW--524" value="" style="shape=tableRow;horizontal=0;startSize=0;swimlaneHead=0;swimlaneBody=0;fillColor=none;collapsible=0;dropTarget=0;points=[[0,0.5],[1,0.5]];portConstraint=eastwest;top=0;left=0;right=0;bottom=0;rounded=1;shadow=1;fillStyle=auto;strokeColor=#BAC8D3;align=center;verticalAlign=middle;fontFamily=Helvetica;fontSize=12;fontColor=#EEEEEE;fontStyle=1;labelBackgroundColor=none;" vertex="1" parent="LPFi_fAzkbVzN_uqESW--517">
          <mxGeometry y="90" width="180" height="30" as="geometry" />
        </mxCell>
        <mxCell id="LPFi_fAzkbVzN_uqESW--525" value="uuid" style="shape=partialRectangle;connectable=0;fillColor=none;top=0;left=0;bottom=0;right=0;editable=1;overflow=hidden;whiteSpace=wrap;html=1;rounded=1;shadow=1;fillStyle=auto;strokeColor=#BAC8D3;align=center;verticalAlign=middle;fontFamily=Helvetica;fontSize=12;fontColor=#EEEEEE;fontStyle=1;labelBackgroundColor=none;" vertex="1" parent="LPFi_fAzkbVzN_uqESW--524">
          <mxGeometry width="46" height="30" as="geometry">
            <mxRectangle width="46" height="30" as="alternateBounds" />
          </mxGeometry>
        </mxCell>
        <mxCell id="LPFi_fAzkbVzN_uqESW--526" value="provider_id" style="shape=partialRectangle;connectable=0;fillColor=none;top=0;left=0;bottom=0;right=0;align=left;spacingLeft=6;overflow=hidden;whiteSpace=wrap;html=1;rounded=1;shadow=1;fillStyle=auto;strokeColor=#BAC8D3;verticalAlign=middle;fontFamily=Helvetica;fontSize=12;fontColor=#EEEEEE;fontStyle=1;labelBackgroundColor=none;" vertex="1" parent="LPFi_fAzkbVzN_uqESW--524">
          <mxGeometry x="46" width="134" height="30" as="geometry">
            <mxRectangle width="134" height="30" as="alternateBounds" />
          </mxGeometry>
        </mxCell>
        <mxCell id="LPFi_fAzkbVzN_uqESW--527" value="" style="shape=tableRow;horizontal=0;startSize=0;swimlaneHead=0;swimlaneBody=0;fillColor=none;collapsible=0;dropTarget=0;points=[[0,0.5],[1,0.5]];portConstraint=eastwest;top=0;left=0;right=0;bottom=0;rounded=1;shadow=1;fillStyle=auto;strokeColor=#BAC8D3;align=center;verticalAlign=middle;fontFamily=Helvetica;fontSize=12;fontColor=#EEEEEE;fontStyle=1;labelBackgroundColor=none;" vertex="1" parent="LPFi_fAzkbVzN_uqESW--517">
          <mxGeometry y="120" width="180" height="30" as="geometry" />
        </mxCell>
        <mxCell id="LPFi_fAzkbVzN_uqESW--528" value="enum" style="shape=partialRectangle;connectable=0;fillColor=none;top=0;left=0;bottom=0;right=0;editable=1;overflow=hidden;whiteSpace=wrap;html=1;rounded=1;shadow=1;fillStyle=auto;strokeColor=#BAC8D3;align=center;verticalAlign=middle;fontFamily=Helvetica;fontSize=12;fontColor=#EEEEEE;fontStyle=0;labelBackgroundColor=none;" vertex="1" parent="LPFi_fAzkbVzN_uqESW--527">
          <mxGeometry width="46" height="30" as="geometry">
            <mxRectangle width="46" height="30" as="alternateBounds" />
          </mxGeometry>
        </mxCell>
        <mxCell id="LPFi_fAzkbVzN_uqESW--529" value="status" style="shape=partialRectangle;connectable=0;fillColor=none;top=0;left=0;bottom=0;right=0;align=left;spacingLeft=6;overflow=hidden;whiteSpace=wrap;html=1;rounded=1;shadow=1;fillStyle=auto;strokeColor=#BAC8D3;verticalAlign=middle;fontFamily=Helvetica;fontSize=12;fontColor=#EEEEEE;fontStyle=0;labelBackgroundColor=none;" vertex="1" parent="LPFi_fAzkbVzN_uqESW--527">
          <mxGeometry x="46" width="134" height="30" as="geometry">
            <mxRectangle width="134" height="30" as="alternateBounds" />
          </mxGeometry>
        </mxCell>
        <mxCell id="LPFi_fAzkbVzN_uqESW--606" value="" style="shape=tableRow;horizontal=0;startSize=0;swimlaneHead=0;swimlaneBody=0;fillColor=none;collapsible=0;dropTarget=0;points=[[0,0.5],[1,0.5]];portConstraint=eastwest;top=0;left=0;right=0;bottom=0;rounded=1;shadow=1;fillStyle=auto;strokeColor=#BAC8D3;align=center;verticalAlign=middle;fontFamily=Helvetica;fontSize=12;fontColor=#EEEEEE;fontStyle=1;labelBackgroundColor=none;" vertex="1" parent="LPFi_fAzkbVzN_uqESW--517">
          <mxGeometry y="150" width="180" height="30" as="geometry" />
        </mxCell>
        <mxCell id="LPFi_fAzkbVzN_uqESW--607" value="?" style="shape=partialRectangle;connectable=0;fillColor=none;top=0;left=0;bottom=0;right=0;editable=1;overflow=hidden;whiteSpace=wrap;html=1;rounded=1;shadow=1;fillStyle=auto;strokeColor=#BAC8D3;align=center;verticalAlign=middle;fontFamily=Helvetica;fontSize=12;fontColor=#EEEEEE;fontStyle=0;labelBackgroundColor=none;" vertex="1" parent="LPFi_fAzkbVzN_uqESW--606">
          <mxGeometry width="46" height="30" as="geometry">
            <mxRectangle width="46" height="30" as="alternateBounds" />
          </mxGeometry>
        </mxCell>
        <mxCell id="LPFi_fAzkbVzN_uqESW--608" value="row" style="shape=partialRectangle;connectable=0;fillColor=none;top=0;left=0;bottom=0;right=0;align=left;spacingLeft=6;overflow=hidden;whiteSpace=wrap;html=1;rounded=1;shadow=1;fillStyle=auto;strokeColor=#BAC8D3;verticalAlign=middle;fontFamily=Helvetica;fontSize=12;fontColor=#EEEEEE;fontStyle=0;labelBackgroundColor=none;" vertex="1" parent="LPFi_fAzkbVzN_uqESW--606">
          <mxGeometry x="46" width="134" height="30" as="geometry">
            <mxRectangle width="134" height="30" as="alternateBounds" />
          </mxGeometry>
        </mxCell>
        <mxCell id="LPFi_fAzkbVzN_uqESW--530" value="service_order_activities" style="shape=table;startSize=30;container=1;collapsible=1;childLayout=tableLayout;fixedRows=1;rowLines=0;fontStyle=1;align=center;resizeLast=1;html=1;rounded=1;shadow=1;fillStyle=auto;strokeColor=#BAC8D3;verticalAlign=middle;fontFamily=Helvetica;fontSize=12;fontColor=#EEEEEE;labelBackgroundColor=none;fillColor=#09555B;" vertex="1" parent="1">
          <mxGeometry x="1560" y="910" width="180" height="150" as="geometry" />
        </mxCell>
        <mxCell id="LPFi_fAzkbVzN_uqESW--531" value="" style="shape=tableRow;horizontal=0;startSize=0;swimlaneHead=0;swimlaneBody=0;fillColor=none;collapsible=0;dropTarget=0;points=[[0,0.5],[1,0.5]];portConstraint=eastwest;top=0;left=0;right=0;bottom=1;rounded=1;shadow=1;fillStyle=auto;strokeColor=#BAC8D3;align=center;verticalAlign=middle;fontFamily=Helvetica;fontSize=12;fontColor=#EEEEEE;fontStyle=1;labelBackgroundColor=none;" vertex="1" parent="LPFi_fAzkbVzN_uqESW--530">
          <mxGeometry y="30" width="180" height="30" as="geometry" />
        </mxCell>
        <mxCell id="LPFi_fAzkbVzN_uqESW--532" value="PK" style="shape=partialRectangle;connectable=0;fillColor=none;top=0;left=0;bottom=0;right=0;fontStyle=1;overflow=hidden;whiteSpace=wrap;html=1;rounded=1;shadow=1;fillStyle=auto;strokeColor=#BAC8D3;align=center;verticalAlign=middle;fontFamily=Helvetica;fontSize=12;fontColor=#EEEEEE;labelBackgroundColor=none;" vertex="1" parent="LPFi_fAzkbVzN_uqESW--531">
          <mxGeometry width="40" height="30" as="geometry">
            <mxRectangle width="40" height="30" as="alternateBounds" />
          </mxGeometry>
        </mxCell>
        <mxCell id="LPFi_fAzkbVzN_uqESW--533" value="UniqueID" style="shape=partialRectangle;connectable=0;fillColor=none;top=0;left=0;bottom=0;right=0;align=left;spacingLeft=6;fontStyle=5;overflow=hidden;whiteSpace=wrap;html=1;rounded=1;shadow=1;fillStyle=auto;strokeColor=#BAC8D3;verticalAlign=middle;fontFamily=Helvetica;fontSize=12;fontColor=#EEEEEE;labelBackgroundColor=none;" vertex="1" parent="LPFi_fAzkbVzN_uqESW--531">
          <mxGeometry x="40" width="140" height="30" as="geometry">
            <mxRectangle width="140" height="30" as="alternateBounds" />
          </mxGeometry>
        </mxCell>
        <mxCell id="LPFi_fAzkbVzN_uqESW--534" value="" style="shape=tableRow;horizontal=0;startSize=0;swimlaneHead=0;swimlaneBody=0;fillColor=none;collapsible=0;dropTarget=0;points=[[0,0.5],[1,0.5]];portConstraint=eastwest;top=0;left=0;right=0;bottom=0;rounded=1;shadow=1;fillStyle=auto;strokeColor=#BAC8D3;align=center;verticalAlign=middle;fontFamily=Helvetica;fontSize=12;fontColor=#EEEEEE;fontStyle=1;labelBackgroundColor=none;" vertex="1" parent="LPFi_fAzkbVzN_uqESW--530">
          <mxGeometry y="60" width="180" height="30" as="geometry" />
        </mxCell>
        <mxCell id="LPFi_fAzkbVzN_uqESW--535" value="" style="shape=partialRectangle;connectable=0;fillColor=none;top=0;left=0;bottom=0;right=0;editable=1;overflow=hidden;whiteSpace=wrap;html=1;rounded=1;shadow=1;fillStyle=auto;strokeColor=#BAC8D3;align=center;verticalAlign=middle;fontFamily=Helvetica;fontSize=12;fontColor=#EEEEEE;fontStyle=1;labelBackgroundColor=none;" vertex="1" parent="LPFi_fAzkbVzN_uqESW--534">
          <mxGeometry width="40" height="30" as="geometry">
            <mxRectangle width="40" height="30" as="alternateBounds" />
          </mxGeometry>
        </mxCell>
        <mxCell id="LPFi_fAzkbVzN_uqESW--536" value="Row 1" style="shape=partialRectangle;connectable=0;fillColor=none;top=0;left=0;bottom=0;right=0;align=left;spacingLeft=6;overflow=hidden;whiteSpace=wrap;html=1;rounded=1;shadow=1;fillStyle=auto;strokeColor=#BAC8D3;verticalAlign=middle;fontFamily=Helvetica;fontSize=12;fontColor=#EEEEEE;fontStyle=0;labelBackgroundColor=none;" vertex="1" parent="LPFi_fAzkbVzN_uqESW--534">
          <mxGeometry x="40" width="140" height="30" as="geometry">
            <mxRectangle width="140" height="30" as="alternateBounds" />
          </mxGeometry>
        </mxCell>
        <mxCell id="LPFi_fAzkbVzN_uqESW--537" value="" style="shape=tableRow;horizontal=0;startSize=0;swimlaneHead=0;swimlaneBody=0;fillColor=none;collapsible=0;dropTarget=0;points=[[0,0.5],[1,0.5]];portConstraint=eastwest;top=0;left=0;right=0;bottom=0;rounded=1;shadow=1;fillStyle=auto;strokeColor=#BAC8D3;align=center;verticalAlign=middle;fontFamily=Helvetica;fontSize=12;fontColor=#EEEEEE;fontStyle=1;labelBackgroundColor=none;" vertex="1" parent="LPFi_fAzkbVzN_uqESW--530">
          <mxGeometry y="90" width="180" height="30" as="geometry" />
        </mxCell>
        <mxCell id="LPFi_fAzkbVzN_uqESW--538" value="" style="shape=partialRectangle;connectable=0;fillColor=none;top=0;left=0;bottom=0;right=0;editable=1;overflow=hidden;whiteSpace=wrap;html=1;rounded=1;shadow=1;fillStyle=auto;strokeColor=#BAC8D3;align=center;verticalAlign=middle;fontFamily=Helvetica;fontSize=12;fontColor=#EEEEEE;fontStyle=1;labelBackgroundColor=none;" vertex="1" parent="LPFi_fAzkbVzN_uqESW--537">
          <mxGeometry width="40" height="30" as="geometry">
            <mxRectangle width="40" height="30" as="alternateBounds" />
          </mxGeometry>
        </mxCell>
        <mxCell id="LPFi_fAzkbVzN_uqESW--539" value="Row 2" style="shape=partialRectangle;connectable=0;fillColor=none;top=0;left=0;bottom=0;right=0;align=left;spacingLeft=6;overflow=hidden;whiteSpace=wrap;html=1;rounded=1;shadow=1;fillStyle=auto;strokeColor=#BAC8D3;verticalAlign=middle;fontFamily=Helvetica;fontSize=12;fontColor=#EEEEEE;fontStyle=0;labelBackgroundColor=none;" vertex="1" parent="LPFi_fAzkbVzN_uqESW--537">
          <mxGeometry x="40" width="140" height="30" as="geometry">
            <mxRectangle width="140" height="30" as="alternateBounds" />
          </mxGeometry>
        </mxCell>
        <mxCell id="LPFi_fAzkbVzN_uqESW--540" value="" style="shape=tableRow;horizontal=0;startSize=0;swimlaneHead=0;swimlaneBody=0;fillColor=none;collapsible=0;dropTarget=0;points=[[0,0.5],[1,0.5]];portConstraint=eastwest;top=0;left=0;right=0;bottom=0;rounded=1;shadow=1;fillStyle=auto;strokeColor=#BAC8D3;align=center;verticalAlign=middle;fontFamily=Helvetica;fontSize=12;fontColor=#EEEEEE;fontStyle=1;labelBackgroundColor=none;" vertex="1" parent="LPFi_fAzkbVzN_uqESW--530">
          <mxGeometry y="120" width="180" height="30" as="geometry" />
        </mxCell>
        <mxCell id="LPFi_fAzkbVzN_uqESW--541" value="uuid" style="shape=partialRectangle;connectable=0;fillColor=none;top=0;left=0;bottom=0;right=0;editable=1;overflow=hidden;whiteSpace=wrap;html=1;rounded=1;shadow=1;fillStyle=auto;strokeColor=#BAC8D3;align=center;verticalAlign=middle;fontFamily=Helvetica;fontSize=12;fontColor=#EEEEEE;fontStyle=1;labelBackgroundColor=none;" vertex="1" parent="LPFi_fAzkbVzN_uqESW--540">
          <mxGeometry width="40" height="30" as="geometry">
            <mxRectangle width="40" height="30" as="alternateBounds" />
          </mxGeometry>
        </mxCell>
        <mxCell id="LPFi_fAzkbVzN_uqESW--542" value="service_order_id" style="shape=partialRectangle;connectable=0;fillColor=none;top=0;left=0;bottom=0;right=0;align=left;spacingLeft=6;overflow=hidden;whiteSpace=wrap;html=1;rounded=1;shadow=1;fillStyle=auto;strokeColor=#BAC8D3;verticalAlign=middle;fontFamily=Helvetica;fontSize=12;fontColor=#EEEEEE;fontStyle=1;labelBackgroundColor=none;" vertex="1" parent="LPFi_fAzkbVzN_uqESW--540">
          <mxGeometry x="40" width="140" height="30" as="geometry">
            <mxRectangle width="140" height="30" as="alternateBounds" />
          </mxGeometry>
        </mxCell>
        <mxCell id="LPFi_fAzkbVzN_uqESW--610" style="edgeStyle=orthogonalEdgeStyle;shape=connector;rounded=1;jumpStyle=none;orthogonalLoop=1;jettySize=auto;html=1;exitX=0;exitY=0.5;exitDx=0;exitDy=0;strokeColor=light-dark(#006EAF, #000305);strokeWidth=2;align=center;verticalAlign=middle;fontFamily=Helvetica;fontSize=12;fontColor=#EEEEEE;fontStyle=1;labelBackgroundColor=none;startArrow=none;startFill=0;endArrow=ERmany;endFill=0;fillColor=#1ba1e2;endSize=12;startSize=12;" edge="1" parent="1" source="LPFi_fAzkbVzN_uqESW--232" target="LPFi_fAzkbVzN_uqESW--456">
          <mxGeometry relative="1" as="geometry" />
        </mxCell>
        <mxCell id="LPFi_fAzkbVzN_uqESW--611" style="edgeStyle=orthogonalEdgeStyle;shape=connector;rounded=1;jumpStyle=none;orthogonalLoop=1;jettySize=auto;html=1;exitX=1;exitY=0.5;exitDx=0;exitDy=0;strokeColor=light-dark(#006EAF, #000305);strokeWidth=2;align=center;verticalAlign=middle;fontFamily=Helvetica;fontSize=12;fontColor=#EEEEEE;fontStyle=1;labelBackgroundColor=none;startArrow=none;startFill=0;endArrow=ERmany;endFill=0;fillColor=#1ba1e2;startSize=12;endSize=12;" edge="1" parent="1" source="LPFi_fAzkbVzN_uqESW--232" target="LPFi_fAzkbVzN_uqESW--261">
          <mxGeometry relative="1" as="geometry" />
        </mxCell>
        <mxCell id="LPFi_fAzkbVzN_uqESW--612" style="edgeStyle=orthogonalEdgeStyle;shape=connector;rounded=1;jumpStyle=none;orthogonalLoop=1;jettySize=auto;html=1;exitX=1;exitY=0.5;exitDx=0;exitDy=0;strokeColor=light-dark(#006EAF, #000305);strokeWidth=2;align=center;verticalAlign=middle;fontFamily=Helvetica;fontSize=12;fontColor=#EEEEEE;fontStyle=1;labelBackgroundColor=none;startArrow=none;startFill=0;endArrow=ERmany;endFill=0;fillColor=#1ba1e2;endSize=12;startSize=12;" edge="1" parent="1" source="LPFi_fAzkbVzN_uqESW--261" target="LPFi_fAzkbVzN_uqESW--469">
          <mxGeometry relative="1" as="geometry" />
        </mxCell>
        <mxCell id="LPFi_fAzkbVzN_uqESW--613" style="edgeStyle=orthogonalEdgeStyle;shape=connector;rounded=1;jumpStyle=none;orthogonalLoop=1;jettySize=auto;html=1;exitX=1;exitY=0.5;exitDx=0;exitDy=0;strokeColor=light-dark(#006EAF, #000305);strokeWidth=2;align=center;verticalAlign=middle;fontFamily=Helvetica;fontSize=12;fontColor=#EEEEEE;fontStyle=1;labelBackgroundColor=none;startArrow=none;startFill=0;endArrow=ERmany;endFill=0;fillColor=#1ba1e2;endSize=12;startSize=12;" edge="1" parent="1" source="LPFi_fAzkbVzN_uqESW--261" target="LPFi_fAzkbVzN_uqESW--472">
          <mxGeometry relative="1" as="geometry" />
        </mxCell>
        <mxCell id="LPFi_fAzkbVzN_uqESW--617" style="edgeStyle=orthogonalEdgeStyle;shape=connector;rounded=1;jumpStyle=none;orthogonalLoop=1;jettySize=auto;html=1;exitX=1;exitY=0.5;exitDx=0;exitDy=0;strokeColor=light-dark(#006EAF, #000305);strokeWidth=2;align=center;verticalAlign=middle;fontFamily=Helvetica;fontSize=12;fontColor=#EEEEEE;fontStyle=1;labelBackgroundColor=none;startArrow=none;startFill=0;endArrow=none;endFill=0;fillColor=#1ba1e2;startSize=12;endSize=12;" edge="1" parent="1" source="LPFi_fAzkbVzN_uqESW--552" target="LPFi_fAzkbVzN_uqESW--492">
          <mxGeometry relative="1" as="geometry" />
        </mxCell>
        <mxCell id="LPFi_fAzkbVzN_uqESW--619" value="contracts" style="shape=table;startSize=30;container=1;collapsible=1;childLayout=tableLayout;fixedRows=1;rowLines=0;fontStyle=1;align=center;resizeLast=1;html=1;rounded=1;shadow=1;fillStyle=auto;strokeColor=#BAC8D3;verticalAlign=middle;fontFamily=Helvetica;fontSize=12;fontColor=#EEEEEE;labelBackgroundColor=none;fillColor=#09555B;" vertex="1" parent="1">
          <mxGeometry x="1300" y="720" width="190" height="180" as="geometry" />
        </mxCell>
        <mxCell id="LPFi_fAzkbVzN_uqESW--620" value="" style="shape=tableRow;horizontal=0;startSize=0;swimlaneHead=0;swimlaneBody=0;fillColor=none;collapsible=0;dropTarget=0;points=[[0,0.5],[1,0.5]];portConstraint=eastwest;top=0;left=0;right=0;bottom=1;rounded=1;shadow=1;fillStyle=auto;strokeColor=#BAC8D3;align=center;verticalAlign=middle;fontFamily=Helvetica;fontSize=12;fontColor=#EEEEEE;fontStyle=1;labelBackgroundColor=none;" vertex="1" parent="LPFi_fAzkbVzN_uqESW--619">
          <mxGeometry y="30" width="190" height="30" as="geometry" />
        </mxCell>
        <mxCell id="LPFi_fAzkbVzN_uqESW--621" value="PK" style="shape=partialRectangle;connectable=0;fillColor=none;top=0;left=0;bottom=0;right=0;fontStyle=1;overflow=hidden;whiteSpace=wrap;html=1;rounded=1;shadow=1;fillStyle=auto;strokeColor=#BAC8D3;align=center;verticalAlign=middle;fontFamily=Helvetica;fontSize=12;fontColor=#EEEEEE;labelBackgroundColor=none;" vertex="1" parent="LPFi_fAzkbVzN_uqESW--620">
          <mxGeometry width="50" height="30" as="geometry">
            <mxRectangle width="50" height="30" as="alternateBounds" />
          </mxGeometry>
        </mxCell>
        <mxCell id="LPFi_fAzkbVzN_uqESW--622" value="UniqueID" style="shape=partialRectangle;connectable=0;fillColor=none;top=0;left=0;bottom=0;right=0;align=left;spacingLeft=6;fontStyle=5;overflow=hidden;whiteSpace=wrap;html=1;rounded=1;shadow=1;fillStyle=auto;strokeColor=#BAC8D3;verticalAlign=middle;fontFamily=Helvetica;fontSize=12;fontColor=#EEEEEE;labelBackgroundColor=none;" vertex="1" parent="LPFi_fAzkbVzN_uqESW--620">
          <mxGeometry x="50" width="140" height="30" as="geometry">
            <mxRectangle width="140" height="30" as="alternateBounds" />
          </mxGeometry>
        </mxCell>
        <mxCell id="LPFi_fAzkbVzN_uqESW--623" value="" style="shape=tableRow;horizontal=0;startSize=0;swimlaneHead=0;swimlaneBody=0;fillColor=none;collapsible=0;dropTarget=0;points=[[0,0.5],[1,0.5]];portConstraint=eastwest;top=0;left=0;right=0;bottom=0;rounded=1;shadow=1;fillStyle=auto;strokeColor=#BAC8D3;align=center;verticalAlign=middle;fontFamily=Helvetica;fontSize=12;fontColor=#EEEEEE;fontStyle=1;labelBackgroundColor=none;" vertex="1" parent="LPFi_fAzkbVzN_uqESW--619">
          <mxGeometry y="60" width="190" height="30" as="geometry" />
        </mxCell>
        <mxCell id="LPFi_fAzkbVzN_uqESW--624" value="" style="shape=partialRectangle;connectable=0;fillColor=none;top=0;left=0;bottom=0;right=0;editable=1;overflow=hidden;whiteSpace=wrap;html=1;rounded=1;shadow=1;fillStyle=auto;strokeColor=#BAC8D3;align=center;verticalAlign=middle;fontFamily=Helvetica;fontSize=12;fontColor=#EEEEEE;fontStyle=0;labelBackgroundColor=none;" vertex="1" parent="LPFi_fAzkbVzN_uqESW--623">
          <mxGeometry width="50" height="30" as="geometry">
            <mxRectangle width="50" height="30" as="alternateBounds" />
          </mxGeometry>
        </mxCell>
        <mxCell id="LPFi_fAzkbVzN_uqESW--625" value="Row 1" style="shape=partialRectangle;connectable=0;fillColor=none;top=0;left=0;bottom=0;right=0;align=left;spacingLeft=6;overflow=hidden;whiteSpace=wrap;html=1;rounded=1;shadow=1;fillStyle=auto;strokeColor=#BAC8D3;verticalAlign=middle;fontFamily=Helvetica;fontSize=12;fontColor=#EEEEEE;fontStyle=0;labelBackgroundColor=none;" vertex="1" parent="LPFi_fAzkbVzN_uqESW--623">
          <mxGeometry x="50" width="140" height="30" as="geometry">
            <mxRectangle width="140" height="30" as="alternateBounds" />
          </mxGeometry>
        </mxCell>
        <mxCell id="LPFi_fAzkbVzN_uqESW--635" value="" style="shape=tableRow;horizontal=0;startSize=0;swimlaneHead=0;swimlaneBody=0;fillColor=none;collapsible=0;dropTarget=0;points=[[0,0.5],[1,0.5]];portConstraint=eastwest;top=0;left=0;right=0;bottom=0;rounded=1;shadow=1;fillStyle=auto;strokeColor=#BAC8D3;align=center;verticalAlign=middle;fontFamily=Helvetica;fontSize=12;fontColor=#EEEEEE;fontStyle=1;labelBackgroundColor=none;" vertex="1" parent="LPFi_fAzkbVzN_uqESW--619">
          <mxGeometry y="90" width="190" height="30" as="geometry" />
        </mxCell>
        <mxCell id="LPFi_fAzkbVzN_uqESW--636" value="" style="shape=partialRectangle;connectable=0;fillColor=none;top=0;left=0;bottom=0;right=0;editable=1;overflow=hidden;whiteSpace=wrap;html=1;rounded=1;shadow=1;fillStyle=auto;strokeColor=#BAC8D3;align=center;verticalAlign=middle;fontFamily=Helvetica;fontSize=12;fontColor=#EEEEEE;fontStyle=0;labelBackgroundColor=none;" vertex="1" parent="LPFi_fAzkbVzN_uqESW--635">
          <mxGeometry width="50" height="30" as="geometry">
            <mxRectangle width="50" height="30" as="alternateBounds" />
          </mxGeometry>
        </mxCell>
        <mxCell id="LPFi_fAzkbVzN_uqESW--637" value="Row 1" style="shape=partialRectangle;connectable=0;fillColor=none;top=0;left=0;bottom=0;right=0;align=left;spacingLeft=6;overflow=hidden;whiteSpace=wrap;html=1;rounded=1;shadow=1;fillStyle=auto;strokeColor=#BAC8D3;verticalAlign=middle;fontFamily=Helvetica;fontSize=12;fontColor=#EEEEEE;fontStyle=0;labelBackgroundColor=none;" vertex="1" parent="LPFi_fAzkbVzN_uqESW--635">
          <mxGeometry x="50" width="140" height="30" as="geometry">
            <mxRectangle width="140" height="30" as="alternateBounds" />
          </mxGeometry>
        </mxCell>
        <mxCell id="LPFi_fAzkbVzN_uqESW--626" value="" style="shape=tableRow;horizontal=0;startSize=0;swimlaneHead=0;swimlaneBody=0;fillColor=none;collapsible=0;dropTarget=0;points=[[0,0.5],[1,0.5]];portConstraint=eastwest;top=0;left=0;right=0;bottom=0;rounded=1;shadow=1;fillStyle=auto;strokeColor=#BAC8D3;align=center;verticalAlign=middle;fontFamily=Helvetica;fontSize=12;fontColor=#EEEEEE;fontStyle=1;labelBackgroundColor=none;" vertex="1" parent="LPFi_fAzkbVzN_uqESW--619">
          <mxGeometry y="120" width="190" height="30" as="geometry" />
        </mxCell>
        <mxCell id="LPFi_fAzkbVzN_uqESW--627" value="enum" style="shape=partialRectangle;connectable=0;fillColor=none;top=0;left=0;bottom=0;right=0;editable=1;overflow=hidden;whiteSpace=wrap;html=1;rounded=1;shadow=1;fillStyle=auto;strokeColor=#BAC8D3;align=center;verticalAlign=middle;fontFamily=Helvetica;fontSize=12;fontColor=#EEEEEE;fontStyle=0;labelBackgroundColor=none;" vertex="1" parent="LPFi_fAzkbVzN_uqESW--626">
          <mxGeometry width="50" height="30" as="geometry">
            <mxRectangle width="50" height="30" as="alternateBounds" />
          </mxGeometry>
        </mxCell>
        <mxCell id="LPFi_fAzkbVzN_uqESW--628" value="status" style="shape=partialRectangle;connectable=0;fillColor=none;top=0;left=0;bottom=0;right=0;align=left;spacingLeft=6;overflow=hidden;whiteSpace=wrap;html=1;rounded=1;shadow=1;fillStyle=auto;strokeColor=#BAC8D3;verticalAlign=middle;fontFamily=Helvetica;fontSize=12;fontColor=#EEEEEE;fontStyle=0;labelBackgroundColor=none;" vertex="1" parent="LPFi_fAzkbVzN_uqESW--626">
          <mxGeometry x="50" width="140" height="30" as="geometry">
            <mxRectangle width="140" height="30" as="alternateBounds" />
          </mxGeometry>
        </mxCell>
        <mxCell id="LPFi_fAzkbVzN_uqESW--632" value="" style="shape=tableRow;horizontal=0;startSize=0;swimlaneHead=0;swimlaneBody=0;fillColor=none;collapsible=0;dropTarget=0;points=[[0,0.5],[1,0.5]];portConstraint=eastwest;top=0;left=0;right=0;bottom=0;rounded=1;shadow=1;fillStyle=auto;strokeColor=#BAC8D3;align=center;verticalAlign=middle;fontFamily=Helvetica;fontSize=12;fontColor=#EEEEEE;fontStyle=1;labelBackgroundColor=none;" vertex="1" parent="LPFi_fAzkbVzN_uqESW--619">
          <mxGeometry y="150" width="190" height="30" as="geometry" />
        </mxCell>
        <mxCell id="LPFi_fAzkbVzN_uqESW--633" value="uuid" style="shape=partialRectangle;connectable=0;fillColor=none;top=0;left=0;bottom=0;right=0;editable=1;overflow=hidden;whiteSpace=wrap;html=1;rounded=1;shadow=1;fillStyle=auto;strokeColor=#BAC8D3;align=center;verticalAlign=middle;fontFamily=Helvetica;fontSize=12;fontColor=#EEEEEE;fontStyle=1;labelBackgroundColor=none;" vertex="1" parent="LPFi_fAzkbVzN_uqESW--632">
          <mxGeometry width="50" height="30" as="geometry">
            <mxRectangle width="50" height="30" as="alternateBounds" />
          </mxGeometry>
        </mxCell>
        <mxCell id="LPFi_fAzkbVzN_uqESW--634" value="service_order_id" style="shape=partialRectangle;connectable=0;fillColor=none;top=0;left=0;bottom=0;right=0;align=left;spacingLeft=6;overflow=hidden;whiteSpace=wrap;html=1;rounded=1;shadow=1;fillStyle=auto;strokeColor=#BAC8D3;verticalAlign=middle;fontFamily=Helvetica;fontSize=12;fontColor=#EEEEEE;fontStyle=1;labelBackgroundColor=none;" vertex="1" parent="LPFi_fAzkbVzN_uqESW--632">
          <mxGeometry x="50" width="140" height="30" as="geometry">
            <mxRectangle width="140" height="30" as="alternateBounds" />
          </mxGeometry>
        </mxCell>
        <mxCell id="LPFi_fAzkbVzN_uqESW--703" value="provider_events" style="shape=table;startSize=30;container=1;collapsible=1;childLayout=tableLayout;fixedRows=1;rowLines=0;fontStyle=1;align=center;resizeLast=1;html=1;rounded=1;shadow=1;fillStyle=auto;strokeColor=#BAC8D3;verticalAlign=middle;fontFamily=Helvetica;fontSize=12;fontColor=#EEEEEE;labelBackgroundColor=none;fillColor=#09555B;" vertex="1" parent="1">
          <mxGeometry x="2560" y="120" width="200" height="210" as="geometry" />
        </mxCell>
        <mxCell id="LPFi_fAzkbVzN_uqESW--704" value="" style="shape=tableRow;horizontal=0;startSize=0;swimlaneHead=0;swimlaneBody=0;fillColor=none;collapsible=0;dropTarget=0;points=[[0,0.5],[1,0.5]];portConstraint=eastwest;top=0;left=0;right=0;bottom=1;rounded=1;shadow=1;fillStyle=auto;strokeColor=#BAC8D3;align=center;verticalAlign=middle;fontFamily=Helvetica;fontSize=12;fontColor=#EEEEEE;fontStyle=1;labelBackgroundColor=none;" vertex="1" parent="LPFi_fAzkbVzN_uqESW--703">
          <mxGeometry y="30" width="200" height="30" as="geometry" />
        </mxCell>
        <mxCell id="LPFi_fAzkbVzN_uqESW--705" value="PK" style="shape=partialRectangle;connectable=0;fillColor=none;top=0;left=0;bottom=0;right=0;fontStyle=1;overflow=hidden;whiteSpace=wrap;html=1;rounded=1;shadow=1;fillStyle=auto;strokeColor=#BAC8D3;align=center;verticalAlign=middle;fontFamily=Helvetica;fontSize=12;fontColor=#EEEEEE;labelBackgroundColor=none;" vertex="1" parent="LPFi_fAzkbVzN_uqESW--704">
          <mxGeometry width="50" height="30" as="geometry">
            <mxRectangle width="50" height="30" as="alternateBounds" />
          </mxGeometry>
        </mxCell>
        <mxCell id="LPFi_fAzkbVzN_uqESW--706" value="UniqueID" style="shape=partialRectangle;connectable=0;fillColor=none;top=0;left=0;bottom=0;right=0;align=left;spacingLeft=6;fontStyle=5;overflow=hidden;whiteSpace=wrap;html=1;rounded=1;shadow=1;fillStyle=auto;strokeColor=#BAC8D3;verticalAlign=middle;fontFamily=Helvetica;fontSize=12;fontColor=#EEEEEE;labelBackgroundColor=none;" vertex="1" parent="LPFi_fAzkbVzN_uqESW--704">
          <mxGeometry x="50" width="150" height="30" as="geometry">
            <mxRectangle width="150" height="30" as="alternateBounds" />
          </mxGeometry>
        </mxCell>
        <mxCell id="LPFi_fAzkbVzN_uqESW--707" value="" style="shape=tableRow;horizontal=0;startSize=0;swimlaneHead=0;swimlaneBody=0;fillColor=none;collapsible=0;dropTarget=0;points=[[0,0.5],[1,0.5]];portConstraint=eastwest;top=0;left=0;right=0;bottom=0;rounded=1;shadow=1;fillStyle=auto;strokeColor=#BAC8D3;align=center;verticalAlign=middle;fontFamily=Helvetica;fontSize=12;fontColor=#EEEEEE;fontStyle=1;labelBackgroundColor=none;" vertex="1" parent="LPFi_fAzkbVzN_uqESW--703">
          <mxGeometry y="60" width="200" height="30" as="geometry" />
        </mxCell>
        <mxCell id="LPFi_fAzkbVzN_uqESW--708" value="uuid" style="shape=partialRectangle;connectable=0;fillColor=none;top=0;left=0;bottom=0;right=0;editable=1;overflow=hidden;whiteSpace=wrap;html=1;rounded=1;shadow=1;fillStyle=auto;strokeColor=#BAC8D3;align=center;verticalAlign=middle;fontFamily=Helvetica;fontSize=12;fontColor=#EEEEEE;fontStyle=1;labelBackgroundColor=none;" vertex="1" parent="LPFi_fAzkbVzN_uqESW--707">
          <mxGeometry width="50" height="30" as="geometry">
            <mxRectangle width="50" height="30" as="alternateBounds" />
          </mxGeometry>
        </mxCell>
        <mxCell id="LPFi_fAzkbVzN_uqESW--709" value="provider_id" style="shape=partialRectangle;connectable=0;fillColor=none;top=0;left=0;bottom=0;right=0;align=left;spacingLeft=6;overflow=hidden;whiteSpace=wrap;html=1;rounded=1;shadow=1;fillStyle=auto;strokeColor=#BAC8D3;verticalAlign=middle;fontFamily=Helvetica;fontSize=12;fontColor=#EEEEEE;fontStyle=1;labelBackgroundColor=none;" vertex="1" parent="LPFi_fAzkbVzN_uqESW--707">
          <mxGeometry x="50" width="150" height="30" as="geometry">
            <mxRectangle width="150" height="30" as="alternateBounds" />
          </mxGeometry>
        </mxCell>
        <mxCell id="LPFi_fAzkbVzN_uqESW--710" value="" style="shape=tableRow;horizontal=0;startSize=0;swimlaneHead=0;swimlaneBody=0;fillColor=none;collapsible=0;dropTarget=0;points=[[0,0.5],[1,0.5]];portConstraint=eastwest;top=0;left=0;right=0;bottom=0;rounded=1;shadow=1;fillStyle=auto;strokeColor=#BAC8D3;align=center;verticalAlign=middle;fontFamily=Helvetica;fontSize=12;fontColor=#EEEEEE;fontStyle=1;labelBackgroundColor=none;" vertex="1" parent="LPFi_fAzkbVzN_uqESW--703">
          <mxGeometry y="90" width="200" height="30" as="geometry" />
        </mxCell>
        <mxCell id="LPFi_fAzkbVzN_uqESW--711" value="uuid" style="shape=partialRectangle;connectable=0;fillColor=none;top=0;left=0;bottom=0;right=0;editable=1;overflow=hidden;whiteSpace=wrap;html=1;rounded=1;shadow=1;fillStyle=auto;strokeColor=#BAC8D3;align=center;verticalAlign=middle;fontFamily=Helvetica;fontSize=12;fontColor=#EEEEEE;fontStyle=1;labelBackgroundColor=none;" vertex="1" parent="LPFi_fAzkbVzN_uqESW--710">
          <mxGeometry width="50" height="30" as="geometry">
            <mxRectangle width="50" height="30" as="alternateBounds" />
          </mxGeometry>
        </mxCell>
        <mxCell id="LPFi_fAzkbVzN_uqESW--712" value="performed_by" style="shape=partialRectangle;connectable=0;fillColor=none;top=0;left=0;bottom=0;right=0;align=left;spacingLeft=6;overflow=hidden;whiteSpace=wrap;html=1;rounded=1;shadow=1;fillStyle=auto;strokeColor=#BAC8D3;verticalAlign=middle;fontFamily=Helvetica;fontSize=12;fontColor=#EEEEEE;fontStyle=1;labelBackgroundColor=none;" vertex="1" parent="LPFi_fAzkbVzN_uqESW--710">
          <mxGeometry x="50" width="150" height="30" as="geometry">
            <mxRectangle width="150" height="30" as="alternateBounds" />
          </mxGeometry>
        </mxCell>
        <mxCell id="LPFi_fAzkbVzN_uqESW--713" value="" style="shape=tableRow;horizontal=0;startSize=0;swimlaneHead=0;swimlaneBody=0;fillColor=none;collapsible=0;dropTarget=0;points=[[0,0.5],[1,0.5]];portConstraint=eastwest;top=0;left=0;right=0;bottom=0;rounded=1;shadow=1;fillStyle=auto;strokeColor=#BAC8D3;align=center;verticalAlign=middle;fontFamily=Helvetica;fontSize=12;fontColor=#EEEEEE;fontStyle=1;labelBackgroundColor=none;" vertex="1" parent="LPFi_fAzkbVzN_uqESW--703">
          <mxGeometry y="120" width="200" height="30" as="geometry" />
        </mxCell>
        <mxCell id="LPFi_fAzkbVzN_uqESW--714" value="enum" style="shape=partialRectangle;connectable=0;fillColor=none;top=0;left=0;bottom=0;right=0;editable=1;overflow=hidden;whiteSpace=wrap;html=1;rounded=1;shadow=1;fillStyle=auto;strokeColor=#BAC8D3;align=center;verticalAlign=middle;fontFamily=Helvetica;fontSize=12;fontColor=#EEEEEE;fontStyle=0;labelBackgroundColor=none;" vertex="1" parent="LPFi_fAzkbVzN_uqESW--713">
          <mxGeometry width="50" height="30" as="geometry">
            <mxRectangle width="50" height="30" as="alternateBounds" />
          </mxGeometry>
        </mxCell>
        <mxCell id="LPFi_fAzkbVzN_uqESW--715" value="event_type" style="shape=partialRectangle;connectable=0;fillColor=none;top=0;left=0;bottom=0;right=0;align=left;spacingLeft=6;overflow=hidden;whiteSpace=wrap;html=1;rounded=1;shadow=1;fillStyle=auto;strokeColor=#BAC8D3;verticalAlign=middle;fontFamily=Helvetica;fontSize=12;fontColor=#EEEEEE;fontStyle=0;labelBackgroundColor=none;" vertex="1" parent="LPFi_fAzkbVzN_uqESW--713">
          <mxGeometry x="50" width="150" height="30" as="geometry">
            <mxRectangle width="150" height="30" as="alternateBounds" />
          </mxGeometry>
        </mxCell>
        <mxCell id="LPFi_fAzkbVzN_uqESW--716" value="" style="shape=tableRow;horizontal=0;startSize=0;swimlaneHead=0;swimlaneBody=0;fillColor=none;collapsible=0;dropTarget=0;points=[[0,0.5],[1,0.5]];portConstraint=eastwest;top=0;left=0;right=0;bottom=0;rounded=1;shadow=1;fillStyle=auto;strokeColor=#BAC8D3;align=center;verticalAlign=middle;fontFamily=Helvetica;fontSize=12;fontColor=#EEEEEE;fontStyle=1;labelBackgroundColor=none;" vertex="1" parent="LPFi_fAzkbVzN_uqESW--703">
          <mxGeometry y="150" width="200" height="30" as="geometry" />
        </mxCell>
        <mxCell id="LPFi_fAzkbVzN_uqESW--717" value="enum" style="shape=partialRectangle;connectable=0;fillColor=none;top=0;left=0;bottom=0;right=0;editable=1;overflow=hidden;whiteSpace=wrap;html=1;rounded=1;shadow=1;fillStyle=auto;strokeColor=#BAC8D3;align=center;verticalAlign=middle;fontFamily=Helvetica;fontSize=12;fontColor=#EEEEEE;fontStyle=0;labelBackgroundColor=none;" vertex="1" parent="LPFi_fAzkbVzN_uqESW--716">
          <mxGeometry width="50" height="30" as="geometry">
            <mxRectangle width="50" height="30" as="alternateBounds" />
          </mxGeometry>
        </mxCell>
        <mxCell id="LPFi_fAzkbVzN_uqESW--718" value="status" style="shape=partialRectangle;connectable=0;fillColor=none;top=0;left=0;bottom=0;right=0;align=left;spacingLeft=6;overflow=hidden;whiteSpace=wrap;html=1;rounded=1;shadow=1;fillStyle=auto;strokeColor=#BAC8D3;verticalAlign=middle;fontFamily=Helvetica;fontSize=12;fontColor=#EEEEEE;fontStyle=0;labelBackgroundColor=none;" vertex="1" parent="LPFi_fAzkbVzN_uqESW--716">
          <mxGeometry x="50" width="150" height="30" as="geometry">
            <mxRectangle width="150" height="30" as="alternateBounds" />
          </mxGeometry>
        </mxCell>
        <mxCell id="LPFi_fAzkbVzN_uqESW--719" value="" style="shape=tableRow;horizontal=0;startSize=0;swimlaneHead=0;swimlaneBody=0;fillColor=none;collapsible=0;dropTarget=0;points=[[0,0.5],[1,0.5]];portConstraint=eastwest;top=0;left=0;right=0;bottom=0;rounded=1;shadow=1;fillStyle=auto;strokeColor=#BAC8D3;align=center;verticalAlign=middle;fontFamily=Helvetica;fontSize=12;fontColor=#EEEEEE;fontStyle=1;labelBackgroundColor=none;" vertex="1" parent="LPFi_fAzkbVzN_uqESW--703">
          <mxGeometry y="180" width="200" height="30" as="geometry" />
        </mxCell>
        <mxCell id="LPFi_fAzkbVzN_uqESW--720" value="varchar" style="shape=partialRectangle;connectable=0;fillColor=none;top=0;left=0;bottom=0;right=0;editable=1;overflow=hidden;whiteSpace=wrap;html=1;rounded=1;shadow=1;fillStyle=auto;strokeColor=#BAC8D3;align=center;verticalAlign=middle;fontFamily=Helvetica;fontSize=12;fontColor=#EEEEEE;fontStyle=0;labelBackgroundColor=none;" vertex="1" parent="LPFi_fAzkbVzN_uqESW--719">
          <mxGeometry width="50" height="30" as="geometry">
            <mxRectangle width="50" height="30" as="alternateBounds" />
          </mxGeometry>
        </mxCell>
        <mxCell id="LPFi_fAzkbVzN_uqESW--721" value="details" style="shape=partialRectangle;connectable=0;fillColor=none;top=0;left=0;bottom=0;right=0;align=left;spacingLeft=6;overflow=hidden;whiteSpace=wrap;html=1;rounded=1;shadow=1;fillStyle=auto;strokeColor=#BAC8D3;verticalAlign=middle;fontFamily=Helvetica;fontSize=12;fontColor=#EEEEEE;fontStyle=0;labelBackgroundColor=none;" vertex="1" parent="LPFi_fAzkbVzN_uqESW--719">
          <mxGeometry x="50" width="150" height="30" as="geometry">
            <mxRectangle width="150" height="30" as="alternateBounds" />
          </mxGeometry>
        </mxCell>
        <mxCell id="LPFi_fAzkbVzN_uqESW--722" value="" style="edgeStyle=entityRelationEdgeStyle;fontSize=12;html=1;endArrow=ERmany;rounded=1;strokeColor=light-dark(#006EAF, #000305);strokeWidth=2;align=center;verticalAlign=middle;fontFamily=Helvetica;fontColor=#EEEEEE;fontStyle=1;labelBackgroundColor=none;jumpStyle=none;startSize=12;endSize=12;fillColor=#1ba1e2;" edge="1" parent="1" source="LPFi_fAzkbVzN_uqESW--232" target="LPFi_fAzkbVzN_uqESW--710">
          <mxGeometry width="100" height="100" relative="1" as="geometry">
            <mxPoint x="1510" y="360" as="sourcePoint" />
            <mxPoint x="1060" y="450" as="targetPoint" />
          </mxGeometry>
        </mxCell>
        <mxCell id="LPFi_fAzkbVzN_uqESW--723" value="" style="edgeStyle=entityRelationEdgeStyle;fontSize=12;html=1;endArrow=ERmany;rounded=1;strokeColor=light-dark(#006EAF, #000305);strokeWidth=2;align=center;verticalAlign=middle;fontFamily=Helvetica;fontColor=#EEEEEE;fontStyle=1;labelBackgroundColor=none;jumpStyle=none;startSize=12;endSize=12;fillColor=#1ba1e2;" edge="1" parent="1" source="LPFi_fAzkbVzN_uqESW--258" target="LPFi_fAzkbVzN_uqESW--707">
          <mxGeometry width="100" height="100" relative="1" as="geometry">
            <mxPoint x="2370" y="740" as="sourcePoint" />
            <mxPoint x="2470" y="640" as="targetPoint" />
          </mxGeometry>
        </mxCell>
      </root>
    </mxGraphModel>
  </diagram>
</mxfile>
